<?xml version="1.0" standalone="no"?>
<!DOCTYPE svg PUBLIC "-//W3C//DTD SVG 20010904//EN"
 "http://www.w3.org/TR/2001/REC-SVG-20010904/DTD/svg10.dtd">
<svg version="1.0" xmlns="http://www.w3.org/2000/svg"
 width="1214.000000pt" height="1191.000000pt" viewBox="0 0 1214.000000 1191.000000"
 preserveAspectRatio="xMidYMid meet">

<g transform="translate(0.000000,1191.000000) scale(0.100000,-0.100000)"
fill="#000000" stroke="none">
<path d="M21 11894 c0 -11 3 -14 6 -6 3 7 2 16 -1 19 -3 4 -6 -2 -5 -13z"/>
<path d="M62 11885 c0 -16 2 -22 5 -12 2 9 2 23 0 30 -3 6 -5 -1 -5 -18z"/>
<path d="M102 11885 c0 -16 2 -22 5 -12 2 9 2 23 0 30 -3 6 -5 -1 -5 -18z"/>
<path d="M143 11870 c0 -25 2 -35 4 -22 2 12 2 32 0 45 -2 12 -4 2 -4 -23z"/>
<path d="M183 11860 c0 -30 2 -43 4 -27 2 15 2 39 0 55 -2 15 -4 2 -4 -28z"/>
<path d="M223 11860 c0 -30 2 -43 4 -27 2 15 2 39 0 55 -2 15 -4 2 -4 -28z"/>
<path d="M263 11855 c0 -33 2 -45 4 -27 2 18 2 45 0 60 -2 15 -4 0 -4 -33z"/>
<path d="M303 11850 c0 -36 2 -50 4 -32 2 17 2 47 0 65 -2 17 -4 3 -4 -33z"/>
<path d="M343 11845 c0 -38 2 -53 4 -32 2 20 2 52 0 70 -2 17 -4 1 -4 -38z"/>
<path d="M691 11894 c0 -11 3 -14 6 -6 3 7 2 16 -1 19 -3 4 -6 -2 -5 -13z"/>
<path d="M732 11885 c0 -16 2 -22 5 -12 2 9 2 23 0 30 -3 6 -5 -1 -5 -18z"/>
<path d="M773 11870 c0 -25 2 -35 4 -22 2 12 2 32 0 45 -2 12 -4 2 -4 -23z"/>
<path d="M813 11860 c0 -30 2 -43 4 -27 2 15 2 39 0 55 -2 15 -4 2 -4 -28z"/>
<path d="M853 11855 c0 -33 2 -45 4 -27 2 18 2 45 0 60 -2 15 -4 0 -4 -33z"/>
<path d="M893 11845 c0 -38 2 -53 4 -32 2 20 2 52 0 70 -2 17 -4 1 -4 -38z"/>
<path d="M933 11840 c0 -41 2 -58 4 -37 2 20 2 54 0 75 -2 20 -4 3 -4 -38z"/>
<path d="M974 11820 c0 -52 1 -74 3 -47 2 26 2 68 0 95 -2 26 -3 4 -3 -48z"/>
<path d="M1014 11820 c0 -52 1 -74 3 -47 2 26 2 68 0 95 -2 26 -3 4 -3 -48z"/>
<path d="M1054 11810 c0 -58 1 -81 3 -52 2 28 2 76 0 105 -2 28 -3 5 -3 -53z"/>
<path d="M1094 11810 c0 -58 1 -81 3 -52 2 28 2 76 0 105 -2 28 -3 5 -3 -53z"/>
<path d="M1134 11795 c0 -66 1 -92 3 -57 2 34 2 88 0 120 -2 31 -3 3 -3 -63z"/>
<path d="M1321 11894 c0 -11 3 -14 6 -6 3 7 2 16 -1 19 -3 4 -6 -2 -5 -13z"/>
<path d="M1402 11880 c0 -19 2 -27 5 -17 2 9 2 25 0 35 -3 9 -5 1 -5 -18z"/>
<path d="M1442 11880 c0 -19 2 -27 5 -17 2 9 2 25 0 35 -3 9 -5 1 -5 -18z"/>
<path d="M1482 11880 c0 -19 2 -27 5 -17 2 9 2 25 0 35 -3 9 -5 1 -5 -18z"/>
<path d="M1523 11870 c0 -25 2 -35 4 -22 2 12 2 32 0 45 -2 12 -4 2 -4 -23z"/>
<path d="M1563 11870 c0 -25 2 -35 4 -22 2 12 2 32 0 45 -2 12 -4 2 -4 -23z"/>
<path d="M1603 11860 c0 -30 2 -43 4 -27 2 15 2 39 0 55 -2 15 -4 2 -4 -28z"/>
<path d="M1643 11860 c0 -30 2 -43 4 -27 2 15 2 39 0 55 -2 15 -4 2 -4 -28z"/>
<path d="M1683 11855 c0 -33 2 -45 4 -27 2 18 2 45 0 60 -2 15 -4 0 -4 -33z"/>
<path d="M1723 11850 c0 -36 2 -50 4 -32 2 17 2 47 0 65 -2 17 -4 3 -4 -33z"/>
<path d="M1763 11850 c0 -36 2 -50 4 -32 2 17 2 47 0 65 -2 17 -4 3 -4 -33z"/>
<path d="M1803 11850 c0 -36 2 -50 4 -32 2 17 2 47 0 65 -2 17 -4 3 -4 -33z"/>
<path d="M1843 11850 c0 -36 2 -50 4 -32 2 17 2 47 0 65 -2 17 -4 3 -4 -33z"/>
<path d="M1883 11845 c0 -38 2 -53 4 -32 2 20 2 52 0 70 -2 17 -4 1 -4 -38z"/>
<path d="M1923 11845 c0 -38 2 -53 4 -32 2 20 2 52 0 70 -2 17 -4 1 -4 -38z"/>
<path d="M1963 11845 c0 -38 2 -53 4 -32 2 20 2 52 0 70 -2 17 -4 1 -4 -38z"/>
<path d="M2003 11855 c0 -33 2 -45 4 -27 2 18 2 45 0 60 -2 15 -4 0 -4 -33z"/>
<path d="M2751 11894 c0 -11 3 -14 6 -6 3 7 2 16 -1 19 -3 4 -6 -2 -5 -13z"/>
<path d="M2792 11890 c0 -14 2 -19 5 -12 2 6 2 18 0 25 -3 6 -5 1 -5 -13z"/>
<path d="M2832 11880 c0 -19 2 -27 5 -17 2 9 2 25 0 35 -3 9 -5 1 -5 -18z"/>
<path d="M2872 11890 c0 -14 2 -19 5 -12 2 6 2 18 0 25 -3 6 -5 1 -5 -13z"/>
<path d="M2913 11870 c0 -25 2 -35 4 -22 2 12 2 32 0 45 -2 12 -4 2 -4 -23z"/>
<path d="M2952 11880 c0 -19 2 -27 5 -17 2 9 2 25 0 35 -3 9 -5 1 -5 -18z"/>
<path d="M2993 11870 c0 -25 2 -35 4 -22 2 12 2 32 0 45 -2 12 -4 2 -4 -23z"/>
<path d="M3033 11865 c0 -27 2 -38 4 -22 2 15 2 37 0 50 -2 12 -4 0 -4 -28z"/>
<path d="M3071 11894 c0 -11 3 -14 6 -6 3 7 2 16 -1 19 -3 4 -6 -2 -5 -13z"/>
<path d="M3113 11860 c0 -30 2 -43 4 -27 2 15 2 39 0 55 -2 15 -4 2 -4 -28z"/>
<path d="M3153 11850 c0 -36 2 -50 4 -32 2 17 2 47 0 65 -2 17 -4 3 -4 -33z"/>
<path d="M3192 11885 c0 -16 2 -22 5 -12 2 9 2 23 0 30 -3 6 -5 -1 -5 -18z"/>
<path d="M3233 11860 c0 -30 2 -43 4 -27 2 15 2 39 0 55 -2 15 -4 2 -4 -28z"/>
<path d="M3273 11870 c0 -25 2 -35 4 -22 2 12 2 32 0 45 -2 12 -4 2 -4 -23z"/>
<path d="M3313 11830 c0 -47 2 -66 4 -42 2 23 2 61 0 85 -2 23 -4 4 -4 -43z"/>
<path d="M3353 11865 c0 -27 2 -38 4 -22 2 15 2 37 0 50 -2 12 -4 0 -4 -28z"/>
<path d="M3433 11860 c0 -30 2 -43 4 -27 2 15 2 39 0 55 -2 15 -4 2 -4 -28z"/>
<path d="M4383 11870 c0 -25 2 -35 4 -22 2 12 2 32 0 45 -2 12 -4 2 -4 -23z"/>
<path d="M4426 11528 c2 -353 2 -367 -7 -178 -5 113 -13 264 -17 335 -9 128
-9 129 -11 40 0 -49 4 -263 9 -475 6 -234 7 -403 1 -430 -8 -40 -9 -34 -11 55
-4 221 -17 198 -20 -35 l-2 -235 -14 160 c-7 87 -15 182 -17 210 -3 27 -3 -49
-2 -170 2 -121 0 -247 -5 -280 -7 -59 -7 -59 -10 35 -1 52 -6 122 -10 155 -6
38 -8 -45 -6 -225 1 -157 0 -316 -4 -355 -6 -63 -7 -56 -9 60 -5 263 -18 235
-21 -45 -3 -291 -7 -286 -29 35 -8 107 -9 85 -5 -122 4 -172 2 -253 -5 -258
-7 -4 -11 16 -12 62 -1 37 -5 97 -9 133 -5 45 -8 -15 -10 -190 -3 -275 -4
-273 -29 90 -6 93 -7 38 -5 -215 3 -350 -6 -396 -25 -125 -8 120 -9 108 -5
-115 2 -155 0 -256 -6 -265 -7 -11 -10 5 -11 55 0 39 -4 90 -8 115 -7 35 -9
19 -10 -75 -2 -162 -16 -178 -29 -34 -9 107 -10 102 -7 -96 2 -115 0 -226 -5
-245 -6 -28 -8 -17 -10 55 -1 50 -5 113 -10 140 -5 32 -8 -42 -8 -204 -1 -139
-3 -256 -6 -259 -4 -3 -6 21 -7 54 0 32 -4 82 -9 109 -6 42 -8 31 -9 -65 -3
-120 -18 -200 -21 -105 -1 28 -5 73 -10 100 -5 36 -8 -4 -10 -140 -4 -205 -3
-206 -29 80 -7 80 -8 55 -5 -120 3 -121 0 -236 -5 -255 -8 -32 -9 -28 -11 35
-1 39 -6 102 -11 140 -5 47 -6 5 -4 -130 2 -110 0 -220 -5 -245 -7 -44 -8 -43
-10 25 -4 118 -18 132 -19 19 -1 -55 -4 -104 -8 -108 -5 -4 -13 36 -20 91
l-12 98 3 -145 c2 -80 0 -165 -4 -190 -7 -41 -8 -38 -9 35 -2 44 -6 89 -11
100 -5 12 -9 -60 -11 -185 -2 -222 -12 -208 -25 35 -3 72 -9 132 -11 135 -3 3
-3 -55 -1 -127 4 -129 0 -152 -21 -115 -7 12 -11 -27 -12 -138 -1 -160 -3
-161 -29 -10 -8 50 -9 47 -6 -35 2 -49 1 -126 -4 -170 l-7 -80 -2 85 c-6 182
-19 127 -20 -79 0 -117 -2 -216 -5 -219 -4 -3 -6 24 -7 59 0 35 -4 73 -9 84
-8 19 -12 -48 -12 -185 1 -56 -4 -39 -22 75 l-14 90 0 -138 c0 -76 -3 -141 -6
-144 -3 -4 -7 18 -7 48 -3 115 -17 115 -19 -1 -2 -63 -2 -124 -1 -134 1 -11
-2 -16 -6 -12 -4 4 -13 58 -19 119 l-12 112 3 -190 c2 -104 0 -199 -5 -210 -6
-15 -9 -6 -10 35 -1 30 -5 80 -10 110 -5 42 -8 18 -10 -105 l-3 -160 -18 115
-18 115 4 -110 c2 -60 0 -128 -4 -150 -8 -38 -9 -37 -11 25 -1 36 -6 76 -10
90 -5 15 -9 -45 -10 -150 -2 -150 -4 -164 -10 -97 -4 43 -10 81 -14 84 -3 4
-6 -46 -6 -110 0 -65 -4 -117 -9 -117 -4 0 -13 37 -18 83 l-10 82 0 -132 c1
-73 -2 -136 -6 -139 -4 -4 -7 10 -8 32 -2 81 -17 92 -18 13 -1 -42 -4 -79 -8
-83 -5 -4 -13 27 -19 71 -11 76 -12 74 -12 -95 0 -96 -3 -176 -6 -179 -3 -4
-7 27 -7 68 -3 157 -17 130 -19 -36 l-2 -170 -13 106 c-20 160 -24 167 -19 29
2 -69 0 -141 -5 -160 -8 -32 -9 -29 -11 30 -3 111 -18 126 -19 19 -1 -53 -4
-99 -8 -103 -5 -4 -13 32 -20 81 -12 88 -12 87 -7 -62 3 -82 0 -163 -5 -180
-8 -26 -9 -22 -11 35 -1 36 -5 83 -9 105 -6 29 -9 -3 -11 -115 -2 -119 -4
-144 -10 -107 -12 70 -20 70 -20 -1 0 -81 -15 -87 -26 -9 -9 62 -9 62 -13 -48
l-4 -110 -12 60 -12 60 -3 -105 c-1 -58 -2 -118 -2 -135 0 -30 -7 5 -27 130
-8 50 -9 38 -6 -75 2 -74 0 -144 -5 -155 -6 -15 -9 -8 -10 30 -2 88 -19 98
-19 13 -1 -43 -5 -78 -10 -78 -5 0 -13 30 -19 68 -10 66 -10 65 -8 -43 2 -60
0 -121 -4 -135 -6 -20 -8 -15 -10 25 -1 28 -5 59 -10 70 -5 13 -9 -31 -11
-120 -1 -123 -2 -133 -10 -80 -13 88 -17 89 -18 3 -1 -112 -13 -129 -27 -38
l-11 75 -3 -110 -2 -110 -12 55 -11 55 -3 -87 c-1 -49 -7 -88 -11 -88 -5 0
-14 33 -20 73 -10 70 -10 69 -7 -48 5 -151 -6 -203 -20 -95 l-9 75 -3 -75 c-4
-93 -17 -110 -30 -39 -9 52 -9 50 -10 -44 -1 -97 -11 -153 -13 -66 0 24 -4 53
-9 64 -8 18 -9 18 -10 -5 -1 -14 -1 -70 -2 -125 0 -100 0 -100 -10 -40 -5 33
-13 83 -18 110 -5 32 -6 4 -3 -81 6 -154 -9 -213 -23 -93 l-9 74 -5 -110 c-5
-108 -5 -109 -14 -55 l-10 55 -5 -67 c-6 -72 -20 -102 -22 -47 -1 19 -5 48 -9
64 -5 18 -8 -22 -8 -103 0 -73 -3 -136 -6 -139 -3 -4 -6 14 -7 38 -1 87 -18
88 -18 1 -1 -53 -5 -81 -11 -77 -5 3 -10 15 -10 25 0 10 -4 21 -9 24 -4 3 -9
-22 -9 -55 -1 -34 -3 -63 -5 -65 -2 -3 -8 24 -13 58 l-9 63 -3 -83 c-1 -45 -7
-82 -11 -82 -5 0 -13 30 -19 68 -10 64 -11 61 -7 -48 3 -63 1 -131 -4 -150 -8
-32 -9 -29 -10 27 -2 110 -16 102 -21 -12 -5 -104 -6 -107 -14 -57 -11 65 -25
68 -20 4 5 -77 -8 -97 -22 -32 l-12 55 -2 -105 c-2 -79 -4 -94 -9 -63 -12 69
-21 62 -21 -15 0 -98 -11 -121 -27 -57 -12 49 -12 48 -7 -37 5 -94 -6 -116
-23 -45 l-11 42 -2 -65 c-2 -63 -2 -64 -13 -30 -11 34 -12 32 -17 -42 -5 -76
-19 -118 -21 -62 -1 16 -5 40 -10 54 -6 17 -7 5 -5 -43 2 -38 1 -78 -2 -90 -5
-19 -8 -16 -18 18 l-12 40 -1 -52 c-1 -54 -17 -80 -25 -41 -3 13 -7 32 -9 43
-3 11 -5 -11 -6 -50 -2 -68 -2 -69 -16 -40 -13 29 -13 28 -14 -38 -1 -43 -5
-66 -11 -62 -5 3 -10 19 -10 35 0 16 -4 31 -9 34 -4 3 -7 -29 -5 -70 4 -101
-10 -141 -22 -64 l-9 55 -5 -70 c-5 -69 -6 -69 -17 -35 -10 31 -11 32 -13 10
-5 -76 -19 -131 -21 -79 0 13 -5 33 -10 44 -6 13 -8 -11 -5 -73 4 -99 -6 -128
-20 -59 -8 38 -9 33 -13 -48 l-3 -90 -13 45 -13 45 -2 -35 c-1 -19 -5 -44 -9
-55 -8 -18 -10 -16 -19 15 -10 33 -10 32 -12 -30 l-2 -65 -13 35 -13 35 -1
-61 c-1 -74 -11 -88 -28 -37 -12 36 -12 34 -7 -34 3 -44 1 -74 -5 -78 -6 -3
-11 2 -11 14 0 10 -3 28 -8 38 -4 12 -9 -4 -12 -47 -6 -65 -6 -65 -17 -30
l-11 35 -2 -45 c-1 -25 -2 -51 -1 -57 1 -7 -2 -13 -7 -13 -5 0 -14 19 -20 43
-9 38 -10 33 -9 -50 1 -102 -6 -126 -19 -61 l-8 43 -6 -65 c-3 -44 -7 -59 -13
-46 -4 10 -11 16 -15 12 -7 -8 -8 -12 -12 -48 -1 -19 -4 -17 -15 12 -13 35
-13 34 -15 -40 l-2 -75 -13 40 c-13 39 -13 38 -15 -55 -2 -93 -2 -94 -15 -55
-11 34 -14 36 -16 15 -2 -25 -4 -40 -8 -70 -2 -8 -9 1 -16 20 l-13 35 -1 -43
c-1 -35 -4 -42 -18 -40 -15 2 -18 -3 -15 -34 3 -42 -13 -59 -25 -26 -6 18 -9
8 -13 -42 -5 -59 -7 -63 -17 -40 l-12 25 0 -32 c-1 -30 -21 -60 -21 -31 -1 30
-20 -19 -21 -52 l-1 -35 -13 40 c-13 40 -13 39 -15 -50 -1 -87 -2 -89 -15 -55
l-13 35 -1 -57 c-1 -32 -5 -58 -11 -58 -5 0 -10 7 -10 15 0 8 -4 15 -9 15 -5
0 -9 -6 -8 -12 0 -7 -1 -22 -2 -33 -2 -18 -3 -18 -16 5 l-14 25 -1 -34 c0 -25
-4 -32 -15 -27 -12 4 -15 -3 -15 -37 0 -60 -16 -80 -28 -36 -8 30 -9 26 -6
-26 1 -33 -1 -67 -6 -75 -8 -12 -10 -10 -10 7 0 12 -4 25 -10 28 -6 4 -10 -7
-10 -25 0 -25 -4 -31 -15 -26 -12 4 -15 -3 -17 -32 -2 -55 -3 -60 -11 -68 -4
-4 -7 2 -7 14 0 12 -4 22 -10 22 -5 0 -9 -15 -8 -32 1 -18 0 -46 -1 -63 l-2
-30 -12 25 c-11 24 -11 24 -15 -12 -2 -21 -7 -38 -13 -38 -5 0 -8 4 -7 9 2 5
-1 9 -7 10 -5 1 -11 -3 -11 -9 -1 -5 -2 -15 -3 -21 -1 -8 -6 -8 -16 1 -14 12
-15 2 -13 -91 3 -100 4 -104 26 -107 16 -2 22 -8 18 -18 -3 -8 1 -14 9 -14 9
0 12 6 9 15 -4 8 -1 15 5 15 6 0 11 -7 11 -15 0 -8 5 -15 10 -15 6 0 10 7 10
15 0 8 5 15 11 15 6 0 9 -7 5 -15 -3 -9 0 -15 9 -15 9 0 12 6 9 15 -7 17 -13
16 151 20 96 2 110 4 107 18 -2 10 2 17 8 17 5 0 10 -7 10 -15 0 -10 10 -15
30 -15 17 0 29 5 28 11 -5 19 20 21 25 2 4 -17 5 -17 6 0 0 9 2 17 4 18 1 0
153 3 337 6 203 3 337 9 341 15 4 6 8 5 11 -3 4 -12 8 -12 20 -1 13 10 17 10
21 0 3 -9 7 -8 12 5 7 17 8 17 21 0 13 -17 13 -17 14 3 0 17 6 21 33 21 303 0
334 2 345 25 l11 23 0 -22 c1 -13 6 -23 11 -23 6 0 10 7 8 16 -4 23 19 29 25
7 4 -17 5 -17 6 1 1 13 6 17 21 13 15 -4 20 0 20 14 0 10 5 19 10 19 6 0 10
-9 10 -21 0 -11 5 -17 10 -14 6 4 9 13 8 20 -5 24 17 17 24 -7 6 -23 6 -23 7
-1 1 31 20 38 29 12 l9 -23 8 25 8 24 4 -22 c5 -27 25 -32 21 -6 -2 14 5 18
32 20 19 0 45 1 58 2 16 1 22 7 23 24 l0 22 11 -22 c6 -13 15 -23 19 -23 4 0
10 10 12 23 l4 22 2 -22 c0 -13 5 -23 10 -23 5 0 12 10 16 23 l8 22 4 -22 c6
-29 20 -29 26 -1 l4 23 10 -24 10 -25 7 25 6 24 15 -25 c14 -25 14 -25 15 -2
0 12 4 22 9 22 5 0 11 -10 14 -22 4 -23 4 -23 15 2 l11 25 7 -24 7 -23 13 23
13 24 10 -25 c9 -23 10 -23 10 -3 1 19 6 21 66 21 41 0 65 -5 65 -12 1 -6 7 0
15 14 l13 25 8 -29 7 -29 12 29 c9 22 13 25 17 12 8 -20 58 -12 58 10 0 13 3
12 15 -4 13 -16 16 -17 25 -4 7 11 10 12 10 2 0 -8 6 -12 13 -9 6 2 11 11 9
18 -1 9 3 8 11 -3 19 -24 25 -23 30 5 l4 22 8 -24 8 -23 13 23 13 24 10 -25
c9 -23 10 -23 10 -4 1 16 7 22 24 22 12 -1 46 1 75 2 45 3 52 6 53 24 0 20 1
20 10 -2 11 -29 29 -20 30 16 1 26 1 26 11 -5 12 -36 30 -46 21 -12 -5 16 -1
20 13 19 46 -5 63 0 67 23 l4 22 2 -22 c0 -14 7 -23 17 -23 11 0 14 6 9 20 -4
11 -2 20 4 20 6 0 11 -9 11 -20 0 -11 5 -20 10 -20 6 0 10 9 10 20 0 11 5 20
10 20 6 0 10 -10 10 -22 0 -28 17 -12 23 22 4 23 5 22 12 -10 l8 -34 13 39 c6
22 12 32 13 23 1 -15 10 -18 50 -18 39 0 51 4 54 18 4 16 5 16 6 0 2 -26 21
-22 21 5 1 22 1 22 15 -3 l14 -25 9 25 10 25 9 -24 10 -25 7 25 7 24 11 -25
c11 -25 11 -25 15 -3 5 26 23 32 23 8 0 -8 5 -15 10 -15 6 0 10 7 10 15 0 21
47 19 59 -2 10 -17 10 -17 11 0 0 12 8 17 29 17 20 0 31 -6 34 -17 4 -17 5
-17 6 0 1 14 12 17 64 18 34 1 68 1 75 0 6 -1 12 6 12 16 1 17 1 17 14 1 18
-24 26 -23 26 5 1 22 1 22 15 -3 l14 -25 9 25 10 25 9 -24 10 -25 7 25 c6 23
7 24 21 5 13 -17 15 -18 15 -3 0 13 9 17 35 17 28 0 35 4 35 20 0 11 5 20 10
20 6 0 10 -9 10 -20 0 -11 5 -20 11 -20 6 0 9 7 5 15 -3 8 -2 25 3 37 8 21 10
19 17 -17 l8 -40 12 60 c7 33 12 50 13 37 1 -19 5 -21 29 -16 35 9 41 14 13
14 -18 0 -20 4 -15 27 9 36 14 42 14 15 0 -24 7 -27 30 -12 13 9 13 10 0 10
-14 0 -16 33 -18 253 -1 138 -4 308 -7 377 -3 69 -10 287 -15 485 -17 614 -30
1047 -41 1390 -6 182 -13 424 -15 538 -1 115 -8 376 -13 580 -6 205 -16 545
-22 757 -6 212 -14 432 -18 490 l-8 105 -1 -130 c-1 -71 3 -284 8 -473 5 -188
6 -352 1 -364 -5 -13 -11 102 -15 272 -3 162 -11 430 -16 595 -5 165 -14 469
-20 675 -6 206 -17 605 -25 885 -19 678 -33 1190 -40 1465 -3 124 -10 387 -15
585 -10 342 -27 1004 -50 1895 -6 222 -13 406 -16 409 -13 13 -17 -26 -17
-186 l0 -178 -7 140 c-4 77 -8 160 -9 183 -1 48 -20 54 -32 11 -7 -23 -7 -23
-8 4 -1 37 -24 31 -32 -9 l-7 -29 -1 33 c-1 36 -21 45 -21 10 0 -13 -5 -30
-10 -38 -7 -11 -10 -5 -10 23 0 20 -4 37 -10 37 -6 0 -11 -60 -12 -157 l-1
-158 -7 115 c-4 63 -8 134 -9 158 0 23 -5 42 -9 42 -4 0 -7 -172 -6 -382z m71
220 c-2 -13 -4 -5 -4 17 -1 22 1 32 4 23 2 -10 2 -28 0 -40z m160 -1720 c-2
-24 -4 -5 -4 42 0 47 2 66 4 43 2 -24 2 -62 0 -85z m10 -380 c-2 -13 -4 -3 -4
22 0 25 2 35 4 23 2 -13 2 -33 0 -45z m10 -365 c-3 -10 -5 -4 -5 12 0 17 2 24
5 18 2 -7 2 -21 0 -30z m10 -436 c-2 -23 -3 -1 -3 48 0 50 1 68 3 42 2 -26 2
-67 0 -90z m10 -380 c-2 -23 -3 -1 -3 48 0 50 1 68 3 42 2 -26 2 -67 0 -90z
m10 -264 c-2 -21 -4 -4 -4 37 0 41 2 58 4 38 2 -21 2 -55 0 -75z m-949 -558
c4 -86 -9 -119 -19 -50 -12 82 -11 127 4 123 7 -3 13 -29 15 -73z m1009 -1532
c-2 -16 -4 -5 -4 22 0 28 2 40 4 28 2 -13 2 -35 0 -50z m87 -1488 c3 -159 9
-326 11 -370 10 -160 14 -528 5 -519 -8 9 -26 554 -34 1084 -3 173 -2 235 3
180 5 -47 11 -215 15 -375z m38 -1417 c2 -115 0 -208 -4 -208 -5 0 -8 44 -8
98 0 53 -2 216 -4 362 -4 228 -3 243 4 110 5 -85 10 -248 12 -362z m6 -533
c-4 -5 -7 52 -6 125 l2 135 6 -125 c3 -69 2 -129 -2 -135z m9 -292 c-1 -43 -3
-10 -3 72 0 83 2 118 3 78 2 -40 2 -107 0 -150z m10 -385 c-2 -29 -3 -8 -3 47
0 55 1 79 3 53 2 -26 2 -71 0 -100z m10 -295 c-2 -21 -4 -6 -4 32 0 39 2 55 4
38 2 -18 2 -50 0 -70z m-122 -682 c3 -5 1 -12 -5 -16 -5 -3 -10 1 -10 9 0 18
6 21 15 7z m-2358 -333 c-3 -8 -6 -5 -6 6 -1 11 2 17 5 13 3 -3 4 -12 1 -19z
m-1177 -78 c0 -5 -4 -10 -10 -10 -5 0 -10 5 -10 10 0 6 5 10 10 10 6 0 10 -4
10 -10z"/>
<path d="M4664 11678 c9 -328 24 -875 36 -1338 6 -217 19 -732 30 -1145 11
-412 24 -930 30 -1150 5 -220 14 -548 20 -730 5 -181 12 -436 16 -565 4 -129
10 -325 14 -435 l7 -200 2 175 c1 96 -3 328 -9 515 -5 187 -15 507 -20 710 -6
204 -15 480 -20 615 -5 135 -12 436 -15 670 -4 234 -9 428 -11 431 -3 6 -19
597 -29 1074 -3 149 -7 344 -10 435 -3 91 -7 257 -10 370 -2 113 -7 339 -11
503 -4 181 -11 297 -16 297 -7 0 -8 -84 -4 -232z"/>
<path d="M4708 11610 c3 -168 7 -307 9 -310 6 -7 0 467 -7 545 -4 39 -4 -67
-2 -235z"/>
<path d="M4743 11840 c0 -41 2 -58 4 -37 2 20 2 54 0 75 -2 20 -4 3 -4 -38z"/>
<path d="M4783 11870 c0 -25 2 -35 4 -22 2 12 2 32 0 45 -2 12 -4 2 -4 -23z"/>
<path d="M4942 11890 c0 -14 2 -19 5 -12 2 6 2 18 0 25 -3 6 -5 1 -5 -13z"/>
<path d="M4981 11894 c0 -11 3 -14 6 -6 3 7 2 16 -1 19 -3 4 -6 -2 -5 -13z"/>
<path d="M5741 11894 c0 -11 3 -14 6 -6 3 7 2 16 -1 19 -3 4 -6 -2 -5 -13z"/>
<path d="M8312 11880 c0 -19 2 -27 5 -17 2 9 2 25 0 35 -3 9 -5 1 -5 -18z"/>
<path d="M8353 11860 c0 -30 2 -43 4 -27 2 15 2 39 0 55 -2 15 -4 2 -4 -28z"/>
<path d="M8712 11880 c0 -19 2 -27 5 -17 2 9 2 25 0 35 -3 9 -5 1 -5 -18z"/>
<path d="M8833 11870 c0 -25 2 -35 4 -22 2 12 2 32 0 45 -2 12 -4 2 -4 -23z"/>
<path d="M9723 11870 c0 -25 2 -35 4 -22 2 12 2 32 0 45 -2 12 -4 2 -4 -23z"/>
<path d="M10044 11815 c0 -55 1 -76 3 -47 2 29 2 74 0 100 -2 26 -3 2 -3 -53z"/>
<path d="M383 11835 c0 -38 2 -53 4 -32 2 20 2 52 0 70 -2 17 -4 1 -4 -38z"/>
<path d="M8753 11840 c0 -36 2 -50 4 -32 2 17 2 47 0 65 -2 17 -4 3 -4 -33z"/>
<path d="M1174 11780 c0 -63 1 -89 3 -57 2 31 2 83 0 115 -2 31 -3 5 -3 -58z"/>
<path d="M2043 11835 c0 -33 2 -45 4 -27 2 18 2 45 0 60 -2 15 -4 0 -4 -33z"/>
<path d="M3393 11820 c0 -41 2 -58 4 -37 2 20 2 54 0 75 -2 20 -4 3 -4 -38z"/>
<path d="M8433 11820 c0 -41 2 -58 4 -37 2 20 2 54 0 75 -2 20 -4 3 -4 -38z"/>
<path d="M423 11840 c0 -25 2 -35 4 -22 2 12 2 32 0 45 -2 12 -4 2 -4 -23z"/>
<path d="M2083 11810 c0 -41 2 -58 4 -37 2 20 2 54 0 75 -2 20 -4 3 -4 -38z"/>
<path d="M2123 11805 c0 -44 2 -61 4 -37 2 23 2 59 0 80 -2 20 -4 1 -4 -43z"/>
<path d="M2284 11795 c0 -49 1 -71 3 -48 2 23 2 64 0 90 -2 26 -3 8 -3 -42z"/>
<path d="M463 11830 c0 -25 2 -35 4 -22 2 12 2 32 0 45 -2 12 -4 2 -4 -23z"/>
<path d="M1214 11780 c0 -52 1 -74 3 -47 2 26 2 68 0 95 -2 26 -3 4 -3 -48z"/>
<path d="M2163 11800 c0 -41 2 -58 4 -37 2 20 2 54 0 75 -2 20 -4 3 -4 -38z"/>
<path d="M2203 11800 c0 -41 2 -58 4 -37 2 20 2 54 0 75 -2 20 -4 3 -4 -38z"/>
<path d="M1254 11755 c0 -60 1 -84 3 -52 2 32 2 81 0 110 -2 29 -3 3 -3 -58z"/>
<path d="M2243 11785 c0 -44 2 -61 4 -37 2 23 2 59 0 80 -2 20 -4 1 -4 -43z"/>
<path d="M3071 11844 c0 -11 3 -14 6 -6 3 7 2 16 -1 19 -3 4 -6 -2 -5 -13z"/>
<path d="M3472 11830 c0 -19 2 -27 5 -17 2 9 2 25 0 35 -3 9 -5 1 -5 -18z"/>
<path d="M3552 11830 c0 -19 2 -27 5 -17 2 9 2 25 0 35 -3 9 -5 1 -5 -18z"/>
<path d="M8271 11844 c0 -11 3 -14 6 -6 3 7 2 16 -1 19 -3 4 -6 -2 -5 -13z"/>
<path d="M503 11810 c0 -25 2 -35 4 -22 2 12 2 32 0 45 -2 12 -4 2 -4 -23z"/>
<path d="M2324 11760 c0 -52 1 -74 3 -47 2 26 2 68 0 95 -2 26 -3 4 -3 -48z"/>
<path d="M2364 11755 c0 -49 1 -71 3 -48 2 23 2 64 0 90 -2 26 -3 8 -3 -42z"/>
<path d="M2444 11750 c0 -52 1 -74 3 -47 2 26 2 68 0 95 -2 26 -3 4 -3 -48z"/>
<path d="M9962 11820 c0 -14 2 -19 5 -12 2 6 2 18 0 25 -3 6 -5 1 -5 -13z"/>
<path d="M1294 11735 c0 -55 1 -76 3 -47 2 29 2 74 0 100 -2 26 -3 2 -3 -53z"/>
<path d="M3513 11795 c0 -22 2 -30 4 -17 2 12 2 30 0 40 -3 9 -5 -1 -4 -23z"/>
<path d="M3673 11790 c0 -25 2 -35 4 -22 2 12 2 32 0 45 -2 12 -4 2 -4 -23z"/>
<path d="M11452 11810 c0 -14 2 -19 5 -12 2 6 2 18 0 25 -3 6 -5 1 -5 -13z"/>
<path d="M2403 11745 c0 -44 2 -61 4 -37 2 23 2 59 0 80 -2 20 -4 1 -4 -43z"/>
<path d="M8033 11740 c0 -47 2 -66 4 -42 2 23 2 61 0 85 -2 23 -4 4 -4 -43z"/>
<path d="M8073 11740 c0 -47 2 -66 4 -42 2 23 2 61 0 85 -2 23 -4 4 -4 -43z"/>
<path d="M33 11735 c0 -44 2 -61 4 -37 2 23 2 59 0 80 -2 20 -4 1 -4 -43z"/>
<path d="M543 11755 c0 -33 2 -45 4 -27 2 18 2 45 0 60 -2 15 -4 0 -4 -33z"/>
<path d="M1334 11720 c0 -52 1 -74 3 -47 2 26 2 68 0 95 -2 26 -3 4 -3 -48z"/>
<path d="M73 11730 c0 -41 2 -58 4 -37 2 20 2 54 0 75 -2 20 -4 3 -4 -38z"/>
<path d="M1374 11715 c0 -49 1 -71 3 -48 2 23 2 64 0 90 -2 26 -3 8 -3 -42z"/>
<path d="M2483 11725 c0 -44 2 -61 4 -37 2 23 2 59 0 80 -2 20 -4 1 -4 -43z"/>
<path d="M2523 11720 c0 -47 2 -66 4 -42 2 23 2 61 0 85 -2 23 -4 4 -4 -43z"/>
<path d="M1414 11700 c0 -52 1 -74 3 -47 2 26 2 68 0 95 -2 26 -3 4 -3 -48z"/>
<path d="M1454 11690 c0 -58 1 -81 3 -52 2 28 2 76 0 105 -2 28 -3 5 -3 -53z"/>
<path d="M2563 11715 c0 -44 2 -61 4 -37 2 23 2 59 0 80 -2 20 -4 1 -4 -43z"/>
<path d="M2603 11710 c0 -47 2 -66 4 -42 2 23 2 61 0 85 -2 23 -4 4 -4 -43z"/>
<path d="M113 11715 c0 -38 2 -53 4 -32 2 20 2 52 0 70 -2 17 -4 1 -4 -38z"/>
<path d="M153 11710 c0 -41 2 -58 4 -37 2 20 2 54 0 75 -2 20 -4 3 -4 -38z"/>
<path d="M583 11725 c0 -33 2 -45 4 -27 2 18 2 45 0 60 -2 15 -4 0 -4 -33z"/>
<path d="M623 11720 c0 -36 2 -50 4 -32 2 17 2 47 0 65 -2 17 -4 3 -4 -33z"/>
<path d="M1494 11690 c0 -52 1 -74 3 -47 2 26 2 68 0 95 -2 26 -3 4 -3 -48z"/>
<path d="M8113 11725 c0 -33 2 -45 4 -27 2 18 2 45 0 60 -2 15 -4 0 -4 -33z"/>
<path d="M10082 11750 c0 -19 2 -27 5 -17 2 9 2 25 0 35 -3 9 -5 1 -5 -18z"/>
<path d="M2644 11685 c0 -49 1 -71 3 -48 2 23 2 64 0 90 -2 26 -3 8 -3 -42z"/>
<path d="M3913 11710 c0 -36 2 -50 4 -32 2 17 2 47 0 65 -2 17 -4 3 -4 -33z"/>
<path d="M2724 11665 c0 -55 1 -76 3 -47 2 29 2 74 0 100 -2 26 -3 2 -3 -53z"/>
<path d="M3873 11725 c0 -22 2 -30 4 -17 2 12 2 30 0 40 -3 9 -5 -1 -4 -23z"/>
<path d="M193 11690 c0 -36 2 -50 4 -32 2 17 2 47 0 65 -2 17 -4 3 -4 -33z"/>
<path d="M663 11700 c0 -30 2 -43 4 -27 2 15 2 39 0 55 -2 15 -4 2 -4 -28z"/>
<path d="M703 11700 c0 -30 2 -43 4 -27 2 15 2 39 0 55 -2 15 -4 2 -4 -28z"/>
<path d="M1533 11670 c0 -47 2 -66 4 -42 2 23 2 61 0 85 -2 23 -4 4 -4 -43z"/>
<path d="M1613 11680 c0 -41 2 -58 4 -37 2 20 2 54 0 75 -2 20 -4 3 -4 -38z"/>
<path d="M2683 11670 c0 -47 2 -66 4 -42 2 23 2 61 0 85 -2 23 -4 4 -4 -43z"/>
<path d="M7912 11730 c0 -14 2 -19 5 -12 2 6 2 18 0 25 -3 6 -5 1 -5 -13z"/>
<path d="M8514 11615 c0 -77 2 -107 3 -67 2 40 2 103 0 140 -2 37 -3 4 -3 -73z"/>
<path d="M8553 11690 c0 -36 2 -50 4 -32 2 17 2 47 0 65 -2 17 -4 3 -4 -33z"/>
<path d="M8633 11670 c0 -47 2 -66 4 -42 2 23 2 61 0 85 -2 23 -4 4 -4 -43z"/>
<path d="M9763 11695 c0 -33 2 -45 4 -27 2 18 2 45 0 60 -2 15 -4 0 -4 -33z"/>
<path d="M1573 11665 c0 -44 2 -61 4 -37 2 23 2 59 0 80 -2 20 -4 1 -4 -43z"/>
<path d="M3953 11705 c0 -22 2 -30 4 -17 2 12 2 30 0 40 -3 9 -5 -1 -4 -23z"/>
<path d="M8594 11655 c0 -49 1 -71 3 -48 2 23 2 64 0 90 -2 26 -3 8 -3 -42z"/>
<path d="M233 11660 c0 -41 2 -58 4 -37 2 20 2 54 0 75 -2 20 -4 3 -4 -38z"/>
<path d="M743 11675 c0 -33 2 -45 4 -27 2 18 2 45 0 60 -2 15 -4 0 -4 -33z"/>
<path d="M783 11660 c0 -41 2 -58 4 -37 2 20 2 54 0 75 -2 20 -4 3 -4 -38z"/>
<path d="M2763 11660 c0 -41 2 -58 4 -37 2 20 2 54 0 75 -2 20 -4 3 -4 -38z"/>
<path d="M4192 11700 c0 -19 2 -27 5 -17 2 9 2 25 0 35 -3 9 -5 1 -5 -18z"/>
<path d="M823 11655 c0 -38 2 -53 4 -32 2 20 2 52 0 70 -2 17 -4 1 -4 -38z"/>
<path d="M1653 11665 c0 -33 2 -45 4 -27 2 18 2 45 0 60 -2 15 -4 0 -4 -33z"/>
<path d="M1693 11655 c0 -38 2 -53 4 -32 2 20 2 52 0 70 -2 17 -4 1 -4 -38z"/>
<path d="M2803 11645 c0 -44 2 -61 4 -37 2 23 2 59 0 80 -2 20 -4 1 -4 -43z"/>
<path d="M2843 11645 c0 -44 2 -61 4 -37 2 23 2 59 0 80 -2 20 -4 1 -4 -43z"/>
<path d="M4352 11695 c0 -16 2 -22 5 -12 2 9 2 23 0 30 -3 6 -5 -1 -5 -18z"/>
<path d="M9602 11690 c0 -19 2 -27 5 -17 2 9 2 25 0 35 -3 9 -5 1 -5 -18z"/>
<path d="M273 11650 c0 -36 2 -50 4 -32 2 17 2 47 0 65 -2 17 -4 3 -4 -33z"/>
<path d="M313 11650 c0 -36 2 -50 4 -32 2 17 2 47 0 65 -2 17 -4 3 -4 -33z"/>
<path d="M863 11650 c0 -36 2 -50 4 -32 2 17 2 47 0 65 -2 17 -4 3 -4 -33z"/>
<path d="M3992 11690 c0 -14 2 -19 5 -12 2 6 2 18 0 25 -3 6 -5 1 -5 -13z"/>
<path d="M353 11625 c0 -44 2 -61 4 -37 2 23 2 59 0 80 -2 20 -4 1 -4 -43z"/>
<path d="M1733 11640 c0 -36 2 -50 4 -32 2 17 2 47 0 65 -2 17 -4 3 -4 -33z"/>
<path d="M2883 11635 c0 -38 2 -53 4 -32 2 20 2 52 0 70 -2 17 -4 1 -4 -38z"/>
<path d="M2923 11630 c0 -41 2 -58 4 -37 2 20 2 54 0 75 -2 20 -4 3 -4 -38z"/>
<path d="M1773 11615 c0 -44 2 -61 4 -37 2 23 2 59 0 80 -2 20 -4 1 -4 -43z"/>
<path d="M2963 11630 c0 -36 2 -50 4 -32 2 17 2 47 0 65 -2 17 -4 3 -4 -33z"/>
<path d="M3043 11615 c0 -44 2 -61 4 -37 2 23 2 59 0 80 -2 20 -4 1 -4 -43z"/>
<path d="M903 11625 c0 -33 2 -45 4 -27 2 18 2 45 0 60 -2 15 -4 0 -4 -33z"/>
<path d="M3003 11630 c0 -30 2 -43 4 -27 2 15 2 39 0 55 -2 15 -4 2 -4 -28z"/>
<path d="M393 11615 c0 -33 2 -45 4 -27 2 18 2 45 0 60 -2 15 -4 0 -4 -33z"/>
<path d="M943 11600 c0 -41 2 -58 4 -37 2 20 2 54 0 75 -2 20 -4 3 -4 -38z"/>
<path d="M983 11605 c0 -38 2 -53 4 -32 2 20 2 52 0 70 -2 17 -4 1 -4 -38z"/>
<path d="M1023 11590 c0 -47 2 -66 4 -42 2 23 2 61 0 85 -2 23 -4 4 -4 -43z"/>
<path d="M1813 11625 c0 -27 2 -38 4 -22 2 15 2 37 0 50 -2 12 -4 0 -4 -28z"/>
<path d="M1853 11620 c0 -30 2 -43 4 -27 2 15 2 39 0 55 -2 15 -4 2 -4 -28z"/>
<path d="M4754 11495 c0 -93 2 -133 3 -88 2 45 2 122 0 170 -1 48 -3 12 -3
-82z"/>
<path d="M433 11580 c0 -41 2 -58 4 -37 2 20 2 54 0 75 -2 20 -4 3 -4 -38z"/>
<path d="M1893 11615 c0 -22 2 -30 4 -17 2 12 2 30 0 40 -3 9 -5 -1 -4 -23z"/>
<path d="M3083 11600 c0 -30 2 -43 4 -27 2 15 2 39 0 55 -2 15 -4 2 -4 -28z"/>
<path d="M3123 11605 c0 -27 2 -38 4 -22 2 15 2 37 0 50 -2 12 -4 0 -4 -28z"/>
<path d="M1063 11570 c0 -41 2 -58 4 -37 2 20 2 54 0 75 -2 20 -4 3 -4 -38z"/>
<path d="M473 11570 c0 -36 2 -50 4 -32 2 17 2 47 0 65 -2 17 -4 3 -4 -33z"/>
<path d="M1103 11560 c0 -41 2 -58 4 -37 2 20 2 54 0 75 -2 20 -4 3 -4 -38z"/>
<path d="M1933 11590 c0 -25 2 -35 4 -22 2 12 2 32 0 45 -2 12 -4 2 -4 -23z"/>
<path d="M3243 11580 c0 -30 2 -43 4 -27 2 15 2 39 0 55 -2 15 -4 2 -4 -28z"/>
<path d="M3 11545 c0 -44 2 -61 4 -37 2 23 2 59 0 80 -2 20 -4 1 -4 -43z"/>
<path d="M1143 11550 c0 -41 2 -58 4 -37 2 20 2 54 0 75 -2 20 -4 3 -4 -38z"/>
<path d="M1973 11580 c0 -25 2 -35 4 -22 2 12 2 32 0 45 -2 12 -4 2 -4 -23z"/>
<path d="M2013 11560 c0 -36 2 -50 4 -32 2 17 2 47 0 65 -2 17 -4 3 -4 -33z"/>
<path d="M3163 11565 c0 -33 2 -45 4 -27 2 18 2 45 0 60 -2 15 -4 0 -4 -33z"/>
<path d="M4271 11604 c0 -11 3 -14 6 -6 3 7 2 16 -1 19 -3 4 -6 -2 -5 -13z"/>
<path d="M7712 11600 c0 -14 2 -19 5 -12 2 6 2 18 0 25 -3 6 -5 1 -5 -13z"/>
<path d="M43 11540 c0 -41 2 -58 4 -37 2 20 2 54 0 75 -2 20 -4 3 -4 -38z"/>
<path d="M512 11585 c0 -16 2 -22 5 -12 2 9 2 23 0 30 -3 6 -5 -1 -5 -18z"/>
<path d="M1183 11540 c0 -41 2 -58 4 -37 2 20 2 54 0 75 -2 20 -4 3 -4 -38z"/>
<path d="M2053 11560 c0 -30 2 -43 4 -27 2 15 2 39 0 55 -2 15 -4 2 -4 -28z"/>
<path d="M3202 11580 c0 -19 2 -27 5 -17 2 9 2 25 0 35 -3 9 -5 1 -5 -18z"/>
<path d="M4793 11535 c0 -44 2 -61 4 -37 2 23 2 59 0 80 -2 20 -4 1 -4 -43z"/>
<path d="M83 11525 c0 -38 2 -53 4 -32 2 20 2 52 0 70 -2 17 -4 1 -4 -38z"/>
<path d="M593 11525 c0 -38 2 -53 4 -32 2 20 2 52 0 70 -2 17 -4 1 -4 -38z"/>
<path d="M1223 11520 c0 -41 2 -58 4 -37 2 20 2 54 0 75 -2 20 -4 3 -4 -38z"/>
<path d="M1263 11510 c0 -47 2 -66 4 -42 2 23 2 61 0 85 -2 23 -4 4 -4 -43z"/>
<path d="M1343 11515 c0 -44 2 -61 4 -37 2 23 2 59 0 80 -2 20 -4 1 -4 -43z"/>
<path d="M2092 11560 c0 -19 2 -27 5 -17 2 9 2 25 0 35 -3 9 -5 1 -5 -18z"/>
<path d="M10003 11540 c0 -30 2 -43 4 -27 2 15 2 39 0 55 -2 15 -4 2 -4 -28z"/>
<path d="M123 11505 c0 -44 2 -61 4 -37 2 23 2 59 0 80 -2 20 -4 1 -4 -43z"/>
<path d="M1303 11500 c0 -47 2 -66 4 -42 2 23 2 61 0 85 -2 23 -4 4 -4 -43z"/>
<path d="M553 11530 c0 -25 2 -35 4 -22 2 12 2 32 0 45 -2 12 -4 2 -4 -23z"/>
<path d="M3282 11540 c0 -19 2 -27 5 -17 2 9 2 25 0 35 -3 9 -5 1 -5 -18z"/>
<path d="M633 11505 c0 -33 2 -45 4 -27 2 18 2 45 0 60 -2 15 -4 0 -4 -33z"/>
<path d="M1383 11510 c0 -30 2 -43 4 -27 2 15 2 39 0 55 -2 15 -4 2 -4 -28z"/>
<path d="M2131 11544 c0 -11 3 -14 6 -6 3 7 2 16 -1 19 -3 4 -6 -2 -5 -13z"/>
<path d="M2252 11535 c0 -16 2 -22 5 -12 2 9 2 23 0 30 -3 6 -5 -1 -5 -18z"/>
<path d="M3403 11510 c0 -30 2 -43 4 -27 2 15 2 39 0 55 -2 15 -4 2 -4 -28z"/>
<path d="M3443 11510 c0 -30 2 -43 4 -27 2 15 2 39 0 55 -2 15 -4 2 -4 -28z"/>
<path d="M7552 11540 c0 -14 2 -19 5 -12 2 6 2 18 0 25 -3 6 -5 1 -5 -13z"/>
<path d="M10442 11535 c0 -16 2 -22 5 -12 2 9 2 23 0 30 -3 6 -5 -1 -5 -18z"/>
<path d="M673 11475 c0 -44 2 -61 4 -37 2 23 2 59 0 80 -2 20 -4 1 -4 -43z"/>
<path d="M1423 11500 c0 -30 2 -43 4 -27 2 15 2 39 0 55 -2 15 -4 2 -4 -28z"/>
<path d="M713 11465 c0 -44 2 -61 4 -37 2 23 2 59 0 80 -2 20 -4 1 -4 -43z"/>
<path d="M7993 11485 c0 -33 2 -45 4 -27 2 18 2 45 0 60 -2 15 -4 0 -4 -33z"/>
<path d="M8311 11524 c0 -11 3 -14 6 -6 3 7 2 16 -1 19 -3 4 -6 -2 -5 -13z"/>
<path d="M10041 11524 c0 -11 3 -14 6 -6 3 7 2 16 -1 19 -3 4 -6 -2 -5 -13z"/>
<path d="M163 11470 c0 -36 2 -50 4 -32 2 17 2 47 0 65 -2 17 -4 3 -4 -33z"/>
<path d="M203 11460 c0 -41 2 -58 4 -37 2 20 2 54 0 75 -2 20 -4 3 -4 -38z"/>
<path d="M512 11510 c0 -14 2 -19 5 -12 2 6 2 18 0 25 -3 6 -5 1 -5 -13z"/>
<path d="M753 11455 c0 -44 2 -61 4 -37 2 23 2 59 0 80 -2 20 -4 1 -4 -43z"/>
<path d="M1463 11465 c0 -38 2 -53 4 -32 2 20 2 52 0 70 -2 17 -4 1 -4 -38z"/>
<path d="M2211 11514 c0 -11 3 -14 6 -6 3 7 2 16 -1 19 -3 4 -6 -2 -5 -13z"/>
<path d="M2333 11490 c0 -25 2 -35 4 -22 2 12 2 32 0 45 -2 12 -4 2 -4 -23z"/>
<path d="M2412 11510 c0 -14 2 -19 5 -12 2 6 2 18 0 25 -3 6 -5 1 -5 -13z"/>
<path d="M3363 11480 c0 -30 2 -43 4 -27 2 15 2 39 0 55 -2 15 -4 2 -4 -28z"/>
<path d="M3562 11510 c0 -14 2 -19 5 -12 2 6 2 18 0 25 -3 6 -5 1 -5 -13z"/>
<path d="M3603 11465 c0 -38 2 -53 4 -32 2 20 2 52 0 70 -2 17 -4 1 -4 -38z"/>
<path d="M3643 11465 c0 -38 2 -53 4 -32 2 20 2 52 0 70 -2 17 -4 1 -4 -38z"/>
<path d="M3483 11475 c0 -27 2 -38 4 -22 2 15 2 37 0 50 -2 12 -4 0 -4 -28z"/>
<path d="M243 11455 c0 -33 2 -45 4 -27 2 18 2 45 0 60 -2 15 -4 0 -4 -33z"/>
<path d="M793 11430 c0 -47 2 -66 4 -42 2 23 2 61 0 85 -2 23 -4 4 -4 -43z"/>
<path d="M834 11425 c0 -49 1 -71 3 -48 2 23 2 64 0 90 -2 26 -3 8 -3 -42z"/>
<path d="M8033 11470 c0 -25 2 -35 4 -22 2 12 2 32 0 45 -2 12 -4 2 -4 -23z"/>
<path d="M283 11425 c0 -44 2 -61 4 -37 2 23 2 59 0 80 -2 20 -4 1 -4 -43z"/>
<path d="M1503 11440 c0 -36 2 -50 4 -32 2 17 2 47 0 65 -2 17 -4 3 -4 -33z"/>
<path d="M1542 11470 c0 -19 2 -27 5 -17 2 9 2 25 0 35 -3 9 -5 1 -5 -18z"/>
<path d="M2453 11465 c0 -22 2 -30 4 -17 2 12 2 30 0 40 -3 9 -5 -1 -4 -23z"/>
<path d="M3683 11455 c0 -27 2 -38 4 -22 2 15 2 37 0 50 -2 12 -4 0 -4 -28z"/>
<path d="M874 11405 c0 -49 1 -71 3 -48 2 23 2 64 0 90 -2 26 -3 8 -3 -42z"/>
<path d="M1583 11435 c0 -33 2 -45 4 -27 2 18 2 45 0 60 -2 15 -4 0 -4 -33z"/>
<path d="M2372 11465 c0 -16 2 -22 5 -12 2 9 2 23 0 30 -3 6 -5 -1 -5 -18z"/>
<path d="M2291 11464 c0 -11 3 -14 6 -6 3 7 2 16 -1 19 -3 4 -6 -2 -5 -13z"/>
<path d="M2493 11440 c0 -25 2 -35 4 -22 2 12 2 32 0 45 -2 12 -4 2 -4 -23z"/>
<path d="M2652 11455 c0 -16 2 -22 5 -12 2 9 2 23 0 30 -3 6 -5 -1 -5 -18z"/>
<path d="M2693 11400 c0 -47 2 -66 4 -42 2 23 2 61 0 85 -2 23 -4 4 -4 -43z"/>
<path d="M3723 11415 c0 -38 2 -53 4 -32 2 20 2 52 0 70 -2 17 -4 1 -4 -38z"/>
<path d="M363 11395 c0 -44 2 -61 4 -37 2 23 2 59 0 80 -2 20 -4 1 -4 -43z"/>
<path d="M913 11390 c0 -47 2 -66 4 -42 2 23 2 61 0 85 -2 23 -4 4 -4 -43z"/>
<path d="M954 11380 c0 -52 1 -74 3 -47 2 26 2 68 0 95 -2 26 -3 4 -3 -48z"/>
<path d="M1623 11405 c0 -38 2 -53 4 -32 2 20 2 52 0 70 -2 17 -4 1 -4 -38z"/>
<path d="M323 11395 c0 -38 2 -53 4 -32 2 20 2 52 0 70 -2 17 -4 1 -4 -38z"/>
<path d="M994 11365 c0 -55 1 -76 3 -47 2 29 2 74 0 100 -2 26 -3 2 -3 -53z"/>
<path d="M2573 11405 c0 -33 2 -45 4 -27 2 18 2 45 0 60 -2 15 -4 0 -4 -33z"/>
<path d="M2611 11444 c0 -11 3 -14 6 -6 3 7 2 16 -1 19 -3 4 -6 -2 -5 -13z"/>
<path d="M2771 11444 c0 -11 3 -14 6 -6 3 7 2 16 -1 19 -3 4 -6 -2 -5 -13z"/>
<path d="M8111 11444 c0 -11 3 -14 6 -6 3 7 2 16 -1 19 -3 4 -6 -2 -5 -13z"/>
<path d="M1074 11355 c0 -55 1 -76 3 -47 2 29 2 74 0 100 -2 26 -3 2 -3 -53z"/>
<path d="M1663 11390 c0 -36 2 -50 4 -32 2 17 2 47 0 65 -2 17 -4 3 -4 -33z"/>
<path d="M1703 11390 c0 -36 2 -50 4 -32 2 17 2 47 0 65 -2 17 -4 3 -4 -33z"/>
<path d="M3843 11400 c0 -30 2 -43 4 -27 2 15 2 39 0 55 -2 15 -4 2 -4 -28z"/>
<path d="M3883 11390 c0 -36 2 -50 4 -32 2 17 2 47 0 65 -2 17 -4 3 -4 -33z"/>
<path d="M1743 11385 c0 -33 2 -45 4 -27 2 18 2 45 0 60 -2 15 -4 0 -4 -33z"/>
<path d="M3763 11380 c0 -36 2 -50 4 -32 2 17 2 47 0 65 -2 17 -4 3 -4 -33z"/>
<path d="M8352 11420 c0 -14 2 -19 5 -12 2 6 2 18 0 25 -3 6 -5 1 -5 -13z"/>
<path d="M1033 11350 c0 -47 2 -66 4 -42 2 23 2 61 0 85 -2 23 -4 4 -4 -43z"/>
<path d="M1783 11375 c0 -33 2 -45 4 -27 2 18 2 45 0 60 -2 15 -4 0 -4 -33z"/>
<path d="M2733 11365 c0 -38 2 -53 4 -32 2 20 2 52 0 70 -2 17 -4 1 -4 -38z"/>
<path d="M3803 11390 c0 -25 2 -35 4 -22 2 12 2 32 0 45 -2 12 -4 2 -4 -23z"/>
<path d="M3923 11370 c0 -36 2 -50 4 -32 2 17 2 47 0 65 -2 17 -4 3 -4 -33z"/>
<path d="M7633 11350 c0 -47 2 -66 4 -42 2 23 2 61 0 85 -2 23 -4 4 -4 -43z"/>
<path d="M403 11350 c0 -41 2 -58 4 -37 2 20 2 54 0 75 -2 20 -4 3 -4 -38z"/>
<path d="M3963 11365 c0 -33 2 -45 4 -27 2 18 2 45 0 60 -2 15 -4 0 -4 -33z"/>
<path d="M1113 11330 c0 -47 2 -66 4 -42 2 23 2 61 0 85 -2 23 -4 4 -4 -43z"/>
<path d="M1823 11345 c0 -38 2 -53 4 -32 2 20 2 52 0 70 -2 17 -4 1 -4 -38z"/>
<path d="M2852 11385 c0 -16 2 -22 5 -12 2 9 2 23 0 30 -3 6 -5 -1 -5 -18z"/>
<path d="M13 11335 c0 -38 2 -53 4 -32 2 20 2 52 0 70 -2 17 -4 1 -4 -38z"/>
<path d="M1153 11320 c0 -47 2 -66 4 -42 2 23 2 61 0 85 -2 23 -4 4 -4 -43z"/>
<path d="M443 11340 c0 -30 2 -43 4 -27 2 15 2 39 0 55 -2 15 -4 2 -4 -28z"/>
<path d="M483 11340 c0 -30 2 -43 4 -27 2 15 2 39 0 55 -2 15 -4 2 -4 -28z"/>
<path d="M1193 11315 c0 -44 2 -61 4 -37 2 23 2 59 0 80 -2 20 -4 1 -4 -43z"/>
<path d="M1234 11305 c0 -49 1 -71 3 -48 2 23 2 64 0 90 -2 26 -3 8 -3 -42z"/>
<path d="M1863 11345 c0 -27 2 -38 4 -22 2 15 2 37 0 50 -2 12 -4 0 -4 -28z"/>
<path d="M2893 11330 c0 -36 2 -50 4 -32 2 17 2 47 0 65 -2 17 -4 3 -4 -33z"/>
<path d="M53 11325 c0 -33 2 -45 4 -27 2 18 2 45 0 60 -2 15 -4 0 -4 -33z"/>
<path d="M93 11320 c0 -36 2 -50 4 -32 2 17 2 47 0 65 -2 17 -4 3 -4 -33z"/>
<path d="M523 11310 c0 -41 2 -58 4 -37 2 20 2 54 0 75 -2 20 -4 3 -4 -38z"/>
<path d="M1902 11350 c0 -19 2 -27 5 -17 2 9 2 25 0 35 -3 9 -5 1 -5 -18z"/>
<path d="M2932 11350 c0 -19 2 -27 5 -17 2 9 2 25 0 35 -3 9 -5 1 -5 -18z"/>
<path d="M563 11300 c0 -41 2 -58 4 -37 2 20 2 54 0 75 -2 20 -4 3 -4 -38z"/>
<path d="M1314 11280 c0 -52 1 -74 3 -47 2 26 2 68 0 95 -2 26 -3 4 -3 -48z"/>
<path d="M1943 11335 c0 -22 2 -30 4 -17 2 12 2 30 0 40 -3 9 -5 -1 -4 -23z"/>
<path d="M1983 11305 c0 -38 2 -53 4 -32 2 20 2 52 0 70 -2 17 -4 1 -4 -38z"/>
<path d="M2972 11345 c0 -16 2 -22 5 -12 2 9 2 23 0 30 -3 6 -5 -1 -5 -18z"/>
<path d="M4003 11325 c0 -27 2 -38 4 -22 2 15 2 37 0 50 -2 12 -4 0 -4 -28z"/>
<path d="M4043 11320 c0 -30 2 -43 4 -27 2 15 2 39 0 55 -2 15 -4 2 -4 -28z"/>
<path d="M4083 11335 c0 -22 2 -30 4 -17 2 12 2 30 0 40 -3 9 -5 -1 -4 -23z"/>
<path d="M4123 11320 c0 -30 2 -43 4 -27 2 15 2 39 0 55 -2 15 -4 2 -4 -28z"/>
<path d="M4364 11235 c0 -77 2 -107 3 -67 2 40 2 103 0 140 -2 37 -3 4 -3 -73z"/>
<path d="M8591 11354 c0 -11 3 -14 6 -6 3 7 2 16 -1 19 -3 4 -6 -2 -5 -13z"/>
<path d="M1273 11290 c0 -41 2 -58 4 -37 2 20 2 54 0 75 -2 20 -4 3 -4 -38z"/>
<path d="M133 11290 c0 -36 2 -50 4 -32 2 17 2 47 0 65 -2 17 -4 3 -4 -33z"/>
<path d="M603 11285 c0 -38 2 -53 4 -32 2 20 2 52 0 70 -2 17 -4 1 -4 -38z"/>
<path d="M1353 11270 c0 -47 2 -66 4 -42 2 23 2 61 0 85 -2 23 -4 4 -4 -43z"/>
<path d="M2023 11310 c0 -25 2 -35 4 -22 2 12 2 32 0 45 -2 12 -4 2 -4 -23z"/>
<path d="M7752 11330 c0 -14 2 -19 5 -12 2 6 2 18 0 25 -3 6 -5 1 -5 -13z"/>
<path d="M173 11290 c0 -30 2 -43 4 -27 2 15 2 39 0 55 -2 15 -4 2 -4 -28z"/>
<path d="M643 11260 c0 -41 2 -58 4 -37 2 20 2 54 0 75 -2 20 -4 3 -4 -38z"/>
<path d="M4161 11314 c0 -11 3 -14 6 -6 3 7 2 16 -1 19 -3 4 -6 -2 -5 -13z"/>
<path d="M1393 11245 c0 -44 2 -61 4 -37 2 23 2 59 0 80 -2 20 -4 1 -4 -43z"/>
<path d="M2062 11300 c0 -14 2 -19 5 -12 2 6 2 18 0 25 -3 6 -5 1 -5 -13z"/>
<path d="M3051 11304 c0 -11 3 -14 6 -6 3 7 2 16 -1 19 -3 4 -6 -2 -5 -13z"/>
<path d="M9562 11295 c0 -16 2 -22 5 -12 2 9 2 23 0 30 -3 6 -5 -1 -5 -18z"/>
<path d="M213 11275 c0 -22 2 -30 4 -17 2 12 2 30 0 40 -3 9 -5 -1 -4 -23z"/>
<path d="M683 11250 c0 -36 2 -50 4 -32 2 17 2 47 0 65 -2 17 -4 3 -4 -33z"/>
<path d="M723 11235 c0 -44 2 -61 4 -37 2 23 2 59 0 80 -2 20 -4 1 -4 -43z"/>
<path d="M763 11220 c0 -47 2 -66 4 -42 2 23 2 61 0 85 -2 23 -4 4 -4 -43z"/>
<path d="M1433 11230 c0 -41 2 -58 4 -37 2 20 2 54 0 75 -2 20 -4 3 -4 -38z"/>
<path d="M2183 11265 c0 -22 2 -30 4 -17 2 12 2 30 0 40 -3 9 -5 -1 -4 -23z"/>
<path d="M4201 11284 c0 -11 3 -14 6 -6 3 7 2 16 -1 19 -3 4 -6 -2 -5 -13z"/>
<path d="M803 11215 c0 -44 2 -61 4 -37 2 23 2 59 0 80 -2 20 -4 1 -4 -43z"/>
<path d="M1473 11235 c0 -33 2 -45 4 -27 2 18 2 45 0 60 -2 15 -4 0 -4 -33z"/>
<path d="M2223 11230 c0 -36 2 -50 4 -32 2 17 2 47 0 65 -2 17 -4 3 -4 -33z"/>
<path d="M4323 11240 c0 -30 2 -43 4 -27 2 15 2 39 0 55 -2 15 -4 2 -4 -28z"/>
<path d="M253 11240 c0 -25 2 -35 4 -22 2 12 2 32 0 45 -2 12 -4 2 -4 -23z"/>
<path d="M2142 11255 c0 -16 2 -22 5 -12 2 9 2 23 0 30 -3 6 -5 -1 -5 -18z"/>
<path d="M2263 11235 c0 -27 2 -38 4 -22 2 15 2 37 0 50 -2 12 -4 0 -4 -28z"/>
<path d="M292 11240 c0 -19 2 -27 5 -17 2 9 2 25 0 35 -3 9 -5 1 -5 -18z"/>
<path d="M843 11195 c0 -44 2 -61 4 -37 2 23 2 59 0 80 -2 20 -4 1 -4 -43z"/>
<path d="M1513 11225 c0 -27 2 -38 4 -22 2 15 2 37 0 50 -2 12 -4 0 -4 -28z"/>
<path d="M9522 11245 c0 -16 2 -22 5 -12 2 9 2 23 0 30 -3 6 -5 -1 -5 -18z"/>
<path d="M4724 11115 c0 -82 2 -115 3 -72 2 43 2 110 0 150 -1 40 -3 5 -3 -78z"/>
<path d="M883 11175 c0 -44 2 -61 4 -37 2 23 2 59 0 80 -2 20 -4 1 -4 -43z"/>
<path d="M1553 11180 c0 -41 2 -58 4 -37 2 20 2 54 0 75 -2 20 -4 3 -4 -38z"/>
<path d="M9922 11230 c0 -14 2 -19 5 -12 2 6 2 18 0 25 -3 6 -5 1 -5 -13z"/>
<path d="M333 11205 c0 -22 2 -30 4 -17 2 12 2 30 0 40 -3 9 -5 -1 -4 -23z"/>
<path d="M1593 11195 c0 -27 2 -38 4 -22 2 15 2 37 0 50 -2 12 -4 0 -4 -28z"/>
<path d="M963 11160 c0 -41 2 -58 4 -37 2 20 2 54 0 75 -2 20 -4 3 -4 -38z"/>
<path d="M371 11204 c0 -11 3 -14 6 -6 3 7 2 16 -1 19 -3 4 -6 -2 -5 -13z"/>
<path d="M413 11160 c0 -36 2 -50 4 -32 2 17 2 47 0 65 -2 17 -4 3 -4 -33z"/>
<path d="M923 11160 c0 -36 2 -50 4 -32 2 17 2 47 0 65 -2 17 -4 3 -4 -33z"/>
<path d="M1003 11150 c0 -41 2 -58 4 -37 2 20 2 54 0 75 -2 20 -4 3 -4 -38z"/>
<path d="M1633 11185 c0 -22 2 -30 4 -17 2 12 2 30 0 40 -3 9 -5 -1 -4 -23z"/>
<path d="M1672 11180 c0 -19 2 -27 5 -17 2 9 2 25 0 35 -3 9 -5 1 -5 -18z"/>
<path d="M7952 11190 c0 -14 2 -19 5 -12 2 6 2 18 0 25 -3 6 -5 1 -5 -13z"/>
<path d="M23 11140 c0 -36 2 -50 4 -32 2 17 2 47 0 65 -2 17 -4 3 -4 -33z"/>
<path d="M1712 11180 c0 -14 2 -19 5 -12 2 6 2 18 0 25 -3 6 -5 1 -5 -13z"/>
<path d="M493 11115 c0 -44 2 -61 4 -37 2 23 2 59 0 80 -2 20 -4 1 -4 -43z"/>
<path d="M2542 11170 c0 -14 2 -19 5 -12 2 6 2 18 0 25 -3 6 -5 1 -5 -13z"/>
<path d="M4764 11095 c0 -55 1 -76 3 -47 2 29 2 74 0 100 -2 26 -3 2 -3 -53z"/>
<path d="M372 11160 c0 -14 2 -19 5 -12 2 6 2 18 0 25 -3 6 -5 1 -5 -13z"/>
<path d="M1752 11140 c0 -19 2 -27 5 -17 2 9 2 25 0 35 -3 9 -5 1 -5 -18z"/>
<path d="M63 11110 c0 -30 2 -43 4 -27 2 15 2 39 0 55 -2 15 -4 2 -4 -28z"/>
<path d="M1043 11115 c0 -27 2 -38 4 -22 2 15 2 37 0 50 -2 12 -4 0 -4 -28z"/>
<path d="M1083 11105 c0 -33 2 -45 4 -27 2 18 2 45 0 60 -2 15 -4 0 -4 -33z"/>
<path d="M533 11085 c0 -38 2 -53 4 -32 2 20 2 52 0 70 -2 17 -4 1 -4 -38z"/>
<path d="M1833 11115 c0 -22 2 -30 4 -17 2 12 2 30 0 40 -3 9 -5 -1 -4 -23z"/>
<path d="M2741 11134 c0 -11 3 -14 6 -6 3 7 2 16 -1 19 -3 4 -6 -2 -5 -13z"/>
<path d="M103 11100 c0 -25 2 -35 4 -22 2 12 2 32 0 45 -2 12 -4 2 -4 -23z"/>
<path d="M143 11085 c0 -33 2 -45 4 -27 2 18 2 45 0 60 -2 15 -4 0 -4 -33z"/>
<path d="M573 11075 c0 -38 2 -53 4 -32 2 20 2 52 0 70 -2 17 -4 1 -4 -38z"/>
<path d="M613 11070 c0 -41 2 -58 4 -37 2 20 2 54 0 75 -2 20 -4 3 -4 -38z"/>
<path d="M654 11055 c0 -49 1 -71 3 -48 2 23 2 64 0 90 -2 26 -3 8 -3 -42z"/>
<path d="M1123 11085 c0 -33 2 -45 4 -27 2 18 2 45 0 60 -2 15 -4 0 -4 -33z"/>
<path d="M1872 11110 c0 -14 2 -19 5 -12 2 6 2 18 0 25 -3 6 -5 1 -5 -13z"/>
<path d="M8152 11110 c0 -14 2 -19 5 -12 2 6 2 18 0 25 -3 6 -5 1 -5 -13z"/>
<path d="M1202 11100 c0 -14 2 -19 5 -12 2 6 2 18 0 25 -3 6 -5 1 -5 -13z"/>
<path d="M1242 11090 c0 -19 2 -27 5 -17 2 9 2 25 0 35 -3 9 -5 1 -5 -18z"/>
<path d="M1911 11094 c0 -11 3 -14 6 -6 3 7 2 16 -1 19 -3 4 -6 -2 -5 -13z"/>
<path d="M8191 11094 c0 -11 3 -14 6 -6 3 7 2 16 -1 19 -3 4 -6 -2 -5 -13z"/>
<path d="M8311 11094 c0 -11 3 -14 6 -6 3 7 2 16 -1 19 -3 4 -6 -2 -5 -13z"/>
<path d="M451 11084 c0 -11 3 -14 6 -6 3 7 2 16 -1 19 -3 4 -6 -2 -5 -13z"/>
<path d="M693 11040 c0 -36 2 -50 4 -32 2 17 2 47 0 65 -2 17 -4 3 -4 -33z"/>
<path d="M221 11074 c0 -11 3 -14 6 -6 3 7 2 16 -1 19 -3 4 -6 -2 -5 -13z"/>
<path d="M1282 11060 c0 -19 2 -27 5 -17 2 9 2 25 0 35 -3 9 -5 1 -5 -18z"/>
<path d="M733 11015 c0 -38 2 -53 4 -32 2 20 2 52 0 70 -2 17 -4 1 -4 -38z"/>
<path d="M2032 11055 c0 -16 2 -22 5 -12 2 9 2 23 0 30 -3 6 -5 -1 -5 -18z"/>
<path d="M773 10995 c0 -44 2 -61 4 -37 2 23 2 59 0 80 -2 20 -4 1 -4 -43z"/>
<path d="M2942 11050 c0 -14 2 -19 5 -12 2 6 2 18 0 25 -3 6 -5 1 -5 -13z"/>
<path d="M1322 11040 c0 -14 2 -19 5 -12 2 6 2 18 0 25 -3 6 -5 1 -5 -13z"/>
<path d="M1402 11030 c0 -19 2 -27 5 -17 2 9 2 25 0 35 -3 9 -5 1 -5 -18z"/>
<path d="M813 10985 c0 -38 2 -53 4 -32 2 20 2 52 0 70 -2 17 -4 1 -4 -38z"/>
<path d="M1442 11010 c0 -19 2 -27 5 -17 2 9 2 25 0 35 -3 9 -5 1 -5 -18z"/>
<path d="M5442 11010 c0 -19 2 -27 5 -17 2 9 2 25 0 35 -3 9 -5 1 -5 -18z"/>
<path d="M1482 11010 c0 -14 2 -19 5 -12 2 6 2 18 0 25 -3 6 -5 1 -5 -13z"/>
<path d="M4294 10910 c0 -69 1 -97 3 -62 2 34 2 90 0 125 -2 34 -3 6 -3 -63z"/>
<path d="M893 10980 c0 -25 2 -35 4 -22 2 12 2 32 0 45 -2 12 -4 2 -4 -23z"/>
<path d="M1523 10980 c0 -25 2 -35 4 -22 2 12 2 32 0 45 -2 12 -4 2 -4 -23z"/>
<path d="M5361 11004 c0 -11 3 -14 6 -6 3 7 2 16 -1 19 -3 4 -6 -2 -5 -13z"/>
<path d="M853 10955 c0 -33 2 -45 4 -27 2 18 2 45 0 60 -2 15 -4 0 -4 -33z"/>
<path d="M1562 10980 c0 -19 2 -27 5 -17 2 9 2 25 0 35 -3 9 -5 1 -5 -18z"/>
<path d="M1602 10985 c0 -16 2 -22 5 -12 2 9 2 23 0 30 -3 6 -5 -1 -5 -18z"/>
<path d="M5521 10994 c0 -11 3 -14 6 -6 3 7 2 16 -1 19 -3 4 -6 -2 -5 -13z"/>
<path d="M5602 10970 c0 -19 2 -27 5 -17 2 9 2 25 0 35 -3 9 -5 1 -5 -18z"/>
<path d="M1643 10930 c0 -30 2 -43 4 -27 2 15 2 39 0 55 -2 15 -4 2 -4 -28z"/>
<path d="M33 10920 c0 -30 2 -43 4 -27 2 15 2 39 0 55 -2 15 -4 2 -4 -28z"/>
<path d="M343 10935 c0 -22 2 -30 4 -17 2 12 2 30 0 40 -3 9 -5 -1 -4 -23z"/>
<path d="M1013 10935 c0 -22 2 -30 4 -17 2 12 2 30 0 40 -3 9 -5 -1 -4 -23z"/>
<path d="M1683 10935 c0 -22 2 -30 4 -17 2 12 2 30 0 40 -3 9 -5 -1 -4 -23z"/>
<path d="M11243 10915 c0 -33 2 -45 4 -27 2 18 2 45 0 60 -2 15 -4 0 -4 -33z"/>
<path d="M4253 10890 c0 -41 2 -58 4 -37 2 20 2 54 0 75 -2 20 -4 3 -4 -38z"/>
<path d="M72 10925 c0 -16 2 -22 5 -12 2 9 2 23 0 30 -3 6 -5 -1 -5 -18z"/>
<path d="M112 10920 c0 -19 2 -27 5 -17 2 9 2 25 0 35 -3 9 -5 1 -5 -18z"/>
<path d="M423 10900 c0 -30 2 -43 4 -27 2 15 2 39 0 55 -2 15 -4 2 -4 -28z"/>
<path d="M463 10890 c0 -36 2 -50 4 -32 2 17 2 47 0 65 -2 17 -4 3 -4 -33z"/>
<path d="M503 10885 c0 -38 2 -53 4 -32 2 20 2 52 0 70 -2 17 -4 1 -4 -38z"/>
<path d="M1052 10925 c0 -16 2 -22 5 -12 2 9 2 23 0 30 -3 6 -5 -1 -5 -18z"/>
<path d="M1723 10905 c0 -27 2 -38 4 -22 2 15 2 37 0 50 -2 12 -4 0 -4 -28z"/>
<path d="M2472 10920 c0 -19 2 -27 5 -17 2 9 2 25 0 35 -3 9 -5 1 -5 -18z"/>
<path d="M382 10915 c0 -16 2 -22 5 -12 2 9 2 23 0 30 -3 6 -5 -1 -5 -18z"/>
<path d="M1763 10895 c0 -27 2 -38 4 -22 2 15 2 37 0 50 -2 12 -4 0 -4 -28z"/>
<path d="M1132 10905 c0 -16 2 -22 5 -12 2 9 2 23 0 30 -3 6 -5 -1 -5 -18z"/>
<path d="M4734 10740 c0 -107 2 -151 3 -97 2 53 2 141 0 195 -1 53 -3 9 -3
-98z"/>
<path d="M543 10865 c0 -33 2 -45 4 -27 2 18 2 45 0 60 -2 15 -4 0 -4 -33z"/>
<path d="M1803 10875 c0 -27 2 -38 4 -22 2 15 2 37 0 50 -2 12 -4 0 -4 -28z"/>
<path d="M583 10850 c0 -36 2 -50 4 -32 2 17 2 47 0 65 -2 17 -4 3 -4 -33z"/>
<path d="M1843 10850 c0 -36 2 -50 4 -32 2 17 2 47 0 65 -2 17 -4 3 -4 -33z"/>
<path d="M1883 10845 c0 -33 2 -45 4 -27 2 18 2 45 0 60 -2 15 -4 0 -4 -33z"/>
<path d="M623 10835 c0 -33 2 -45 4 -27 2 18 2 45 0 60 -2 15 -4 0 -4 -33z"/>
<path d="M663 10835 c0 -33 2 -45 4 -27 2 18 2 45 0 60 -2 15 -4 0 -4 -33z"/>
<path d="M1923 10845 c0 -27 2 -38 4 -22 2 15 2 37 0 50 -2 12 -4 0 -4 -28z"/>
<path d="M191 10854 c0 -11 3 -14 6 -6 3 7 2 16 -1 19 -3 4 -6 -2 -5 -13z"/>
<path d="M232 10850 c0 -14 2 -19 5 -12 2 6 2 18 0 25 -3 6 -5 1 -5 -13z"/>
<path d="M273 10830 c0 -25 2 -35 4 -22 2 12 2 32 0 45 -2 12 -4 2 -4 -23z"/>
<path d="M312 10820 c0 -19 2 -27 5 -17 2 9 2 25 0 35 -3 9 -5 1 -5 -18z"/>
<path d="M703 10805 c0 -27 2 -38 4 -22 2 15 2 37 0 50 -2 12 -4 0 -4 -28z"/>
<path d="M743 10805 c0 -27 2 -38 4 -22 2 15 2 37 0 50 -2 12 -4 0 -4 -28z"/>
<path d="M783 10795 c0 -27 2 -38 4 -22 2 15 2 37 0 50 -2 12 -4 0 -4 -28z"/>
<path d="M1372 10820 c0 -14 2 -19 5 -12 2 6 2 18 0 25 -3 6 -5 1 -5 -13z"/>
<path d="M1963 10805 c0 -22 2 -30 4 -17 2 12 2 30 0 40 -3 9 -5 -1 -4 -23z"/>
<path d="M2003 10805 c0 -22 2 -30 4 -17 2 12 2 30 0 40 -3 9 -5 -1 -4 -23z"/>
<path d="M1332 10805 c0 -16 2 -22 5 -12 2 9 2 23 0 30 -3 6 -5 -1 -5 -18z"/>
<path d="M353 10755 c0 -38 2 -53 4 -32 2 20 2 52 0 70 -2 17 -4 1 -4 -38z"/>
<path d="M4774 10690 c0 -74 1 -105 3 -67 2 37 2 97 0 135 -2 37 -3 6 -3 -68z"/>
<path d="M2 10765 c0 -16 2 -22 5 -12 2 9 2 23 0 30 -3 6 -5 -1 -5 -18z"/>
<path d="M393 10725 c0 -38 2 -53 4 -32 2 20 2 52 0 70 -2 17 -4 1 -4 -38z"/>
<path d="M433 10710 c0 -47 2 -66 4 -42 2 23 2 61 0 85 -2 23 -4 4 -4 -43z"/>
<path d="M2123 10750 c0 -25 2 -35 4 -22 2 12 2 32 0 45 -2 12 -4 2 -4 -23z"/>
<path d="M2163 10750 c0 -25 2 -35 4 -22 2 12 2 32 0 45 -2 12 -4 2 -4 -23z"/>
<path d="M42 10735 c0 -16 2 -22 5 -12 2 9 2 23 0 30 -3 6 -5 -1 -5 -18z"/>
<path d="M513 10685 c0 -38 2 -53 4 -32 2 20 2 52 0 70 -2 17 -4 1 -4 -38z"/>
<path d="M1531 10724 c0 -11 3 -14 6 -6 3 7 2 16 -1 19 -3 4 -6 -2 -5 -13z"/>
<path d="M2281 10724 c0 -11 3 -14 6 -6 3 7 2 16 -1 19 -3 4 -6 -2 -5 -13z"/>
<path d="M473 10675 c0 -33 2 -45 4 -27 2 18 2 45 0 60 -2 15 -4 0 -4 -33z"/>
<path d="M553 10670 c0 -25 2 -35 4 -22 2 12 2 32 0 45 -2 12 -4 2 -4 -23z"/>
<path d="M4264 10585 c0 -66 1 -92 3 -57 2 34 2 88 0 120 -2 31 -3 3 -3 -63z"/>
<path d="M593 10640 c0 -30 2 -43 4 -27 2 15 2 39 0 55 -2 15 -4 2 -4 -28z"/>
<path d="M81 10624 c0 -11 3 -14 6 -6 3 7 2 16 -1 19 -3 4 -6 -2 -5 -13z"/>
<path d="M672 10620 c0 -14 2 -19 5 -12 2 6 2 18 0 25 -3 6 -5 1 -5 -13z"/>
<path d="M203 10575 c0 -27 2 -38 4 -22 2 15 2 37 0 50 -2 12 -4 0 -4 -28z"/>
<path d="M243 10570 c0 -30 2 -43 4 -27 2 15 2 39 0 55 -2 15 -4 2 -4 -28z"/>
<path d="M283 10560 c0 -30 2 -43 4 -27 2 15 2 39 0 55 -2 15 -4 2 -4 -28z"/>
<path d="M323 10525 c0 -33 2 -45 4 -27 2 18 2 45 0 60 -2 15 -4 0 -4 -33z"/>
<path d="M363 10535 c0 -27 2 -38 4 -22 2 15 2 37 0 50 -2 12 -4 0 -4 -28z"/>
<path d="M403 10520 c0 -30 2 -43 4 -27 2 15 2 39 0 55 -2 15 -4 2 -4 -28z"/>
<path d="M443 10510 c0 -30 2 -43 4 -27 2 15 2 39 0 55 -2 15 -4 2 -4 -28z"/>
<path d="M523 10485 c0 -27 2 -38 4 -22 2 15 2 37 0 50 -2 12 -4 0 -4 -28z"/>
<path d="M563 10465 c0 -22 2 -30 4 -17 2 12 2 30 0 40 -3 9 -5 -1 -4 -23z"/>
<path d="M133 10440 c0 -30 2 -43 4 -27 2 15 2 39 0 55 -2 15 -4 2 -4 -28z"/>
<path d="M4744 10335 c0 -77 2 -107 3 -67 2 40 2 103 0 140 -2 37 -3 4 -3 -73z"/>
<path d="M213 10390 c0 -30 2 -43 4 -27 2 15 2 39 0 55 -2 15 -4 2 -4 -28z"/>
<path d="M173 10390 c0 -25 2 -35 4 -22 2 12 2 32 0 45 -2 12 -4 2 -4 -23z"/>
<path d="M293 10365 c0 -33 2 -45 4 -27 2 18 2 45 0 60 -2 15 -4 0 -4 -33z"/>
<path d="M253 10365 c0 -27 2 -38 4 -22 2 15 2 37 0 50 -2 12 -4 0 -4 -28z"/>
<path d="M4784 10300 c0 -58 1 -81 3 -52 2 28 2 76 0 105 -2 28 -3 5 -3 -53z"/>
<path d="M331 10344 c0 -11 3 -14 6 -6 3 7 2 16 -1 19 -3 4 -6 -2 -5 -13z"/>
<path d="M4193 10135 c0 -27 2 -38 4 -22 2 15 2 37 0 50 -2 12 -4 0 -4 -28z"/>
<path d="M4754 9930 c0 -102 2 -143 3 -92 2 50 2 134 0 185 -1 50 -3 9 -3 -93z"/>
<path d="M1482 10050 c0 -14 2 -19 5 -12 2 6 2 18 0 25 -3 6 -5 1 -5 -13z"/>
<path d="M4793 9965 c0 -33 2 -45 4 -27 2 18 2 45 0 60 -2 15 -4 0 -4 -33z"/>
<path d="M4122 9850 c0 -19 2 -27 5 -17 2 9 2 25 0 35 -3 9 -5 1 -5 -18z"/>
<path d="M4764 9550 c0 -91 2 -128 3 -82 2 45 2 119 0 165 -1 45 -3 8 -3 -83z"/>
<path d="M4803 9480 c0 -47 2 -66 4 -42 2 23 2 61 0 85 -2 23 -4 4 -4 -43z"/>
<path d="M4023 9255 c0 -38 2 -53 4 -32 2 20 2 52 0 70 -2 17 -4 1 -4 -38z"/>
<path d="M4774 9140 c0 -80 2 -112 3 -72 2 39 2 105 0 145 -1 39 -3 7 -3 -73z"/>
<path d="M3993 8950 c0 -47 2 -66 4 -42 2 23 2 61 0 85 -2 23 -4 4 -4 -43z"/>
<path d="M4784 8755 c0 -71 1 -99 3 -62 2 37 2 96 0 130 -2 34 -3 4 -3 -68z"/>
<path d="M4794 8390 c0 -69 1 -97 3 -62 2 34 2 90 0 125 -2 34 -3 6 -3 -63z"/>
<path d="M3783 8105 c0 -27 2 -38 4 -22 2 15 2 37 0 50 -2 12 -4 0 -4 -28z"/>
<path d="M4804 7975 c0 -82 2 -115 3 -72 2 43 2 110 0 150 -1 40 -3 5 -3 -78z"/>
<path d="M5048 7540 c3 -146 8 -272 13 -280 9 -18 2 340 -9 460 -6 55 -7 -9
-4 -180z"/>
<path d="M4814 7645 c0 -77 2 -107 3 -67 2 40 2 103 0 140 -2 37 -3 4 -3 -73z"/>
<path d="M5003 7735 c0 -22 2 -30 4 -17 2 12 2 30 0 40 -3 9 -5 -1 -4 -23z"/>
<path d="M5082 7730 c-1 -25 3 -205 8 -400 27 -962 69 -2597 90 -3460 6 -234
15 -585 20 -780 5 -195 14 -569 20 -830 7 -261 16 -484 21 -495 10 -21 8 149
-11 840 -5 198 -16 655 -25 1015 -8 360 -20 815 -25 1010 -10 370 -13 626 -6
619 2 -2 7 -112 10 -244 4 -132 11 -384 16 -560 5 -176 9 -414 10 -530 0 -115
5 -282 10 -370 5 -88 12 -281 15 -430 3 -148 10 -439 15 -645 5 -206 12 -494
15 -640 3 -146 7 -326 10 -400 2 -74 5 -184 5 -245 1 -100 2 -107 14 -80 l13
30 8 -28 c7 -26 8 -26 20 -10 13 17 14 16 23 -7 l9 -25 8 25 c7 23 8 23 21 5
13 -17 14 -17 14 -1 0 13 5 16 20 11 15 -5 20 -2 21 12 0 10 3 13 6 6 7 -19
33 -16 33 5 1 15 2 14 12 -3 12 -19 12 -19 19 5 l7 25 7 -22 c4 -13 11 -23 15
-23 5 0 10 10 13 23 4 22 4 22 14 -3 l11 -25 10 25 10 25 9 -24 10 -25 8 30 8
29 13 -30 c12 -26 13 -27 14 -7 0 12 4 22 9 22 5 0 11 -10 14 -22 3 -16 6 -10
12 22 l9 45 12 -40 11 -40 8 40 c8 38 8 38 18 15 l10 -25 4 23 c5 25 23 31 23
7 0 -8 5 -15 10 -15 6 0 10 9 10 21 0 30 20 12 21 -19 1 -19 5 -12 13 23 l13
50 8 -45 9 -45 12 45 c11 44 12 44 22 20 10 -24 11 -24 11 -2 1 12 6 22 11 22
6 0 10 -10 11 -22 l0 -23 11 23 c6 12 15 22 20 22 4 0 8 -10 8 -22 1 -20 2
-20 15 7 l14 30 7 -24 c6 -22 8 -23 14 -7 3 11 18 20 33 22 22 2 27 -2 28 -19
0 -17 3 -15 13 11 12 35 26 34 26 -2 1 -17 3 -15 14 9 11 26 13 27 19 11 7
-19 8 -19 22 0 11 15 15 16 15 4 0 -12 4 -11 15 4 14 19 15 18 24 -5 l9 -24 7
29 c7 27 9 28 21 11 8 -11 14 -13 14 -7 0 19 20 14 21 -5 0 -12 4 -8 11 10 11
31 28 27 29 -6 0 -17 4 -14 14 13 l13 35 7 -29 8 -29 13 29 c8 19 13 23 13 12
1 -22 21 -24 21 -3 0 8 5 15 10 15 6 0 10 -10 10 -22 0 -29 11 -16 20 24 l8
33 7 -33 c9 -38 14 -36 25 10 l7 33 10 -35 10 -35 8 40 9 40 6 -40 7 -40 8 43
c9 48 24 40 26 -13 1 -22 4 -16 13 25 l12 55 9 -35 8 -35 12 35 c11 34 12 34
19 10 l8 -25 8 30 c7 32 15 23 23 -25 3 -19 6 -15 12 20 l8 45 12 -29 12 -29
11 29 10 29 10 -25 c8 -18 11 -20 11 -7 1 9 6 17 11 17 6 0 10 -8 11 -17 0
-12 5 -8 14 12 14 30 14 30 21 6 l7 -23 12 28 12 29 8 -29 8 -29 12 29 c11 26
13 27 20 10 8 -17 9 -17 21 5 10 19 13 20 14 7 0 -10 4 -18 9 -18 5 0 12 8 14
18 4 14 6 14 12 -5 8 -27 25 -21 25 8 0 27 20 13 20 -14 1 -19 3 -18 14 8 l14
30 10 -25 c8 -18 11 -20 11 -7 1 22 21 23 21 0 0 -24 17 -4 23 27 4 23 5 23
12 -8 9 -39 24 -26 26 23 1 29 2 28 13 -10 l13 -40 10 40 c6 22 11 32 12 23 2
-29 21 -20 21 10 0 21 2 24 10 12 5 -8 10 -26 11 -40 0 -23 1 -23 9 -5 5 11 9
36 10 55 1 29 3 32 10 15 5 -11 9 -33 10 -50 2 -25 4 -22 15 20 l12 50 10 -35
9 -35 7 35 c6 26 10 31 16 21 5 -8 7 -20 4 -28 -3 -7 0 -13 6 -13 6 0 11 14
11 31 0 43 20 26 21 -19 1 -37 1 -37 12 11 13 52 26 53 28 3 1 -28 2 -27 13
14 11 41 13 43 20 21 l8 -24 13 24 c12 21 14 22 20 6 7 -17 8 -17 21 0 12 17
13 16 14 -7 2 -25 2 -24 15 5 13 30 15 29 28 -15 2 -8 7 0 12 19 l7 35 13 -30
c9 -20 14 -23 14 -11 1 13 6 17 20 12 15 -4 20 0 23 17 4 20 6 18 15 -12 l10
-35 8 35 8 35 12 -29 13 -30 7 34 7 34 14 -25 c13 -24 13 -24 14 -1 0 12 5 22
10 22 6 0 10 -10 10 -22 0 -31 12 -14 20 29 l7 38 8 -45 c7 -35 10 -40 16 -25
4 11 8 38 8 60 2 53 20 27 22 -30 1 -40 1 -39 13 15 l12 55 8 -40 9 -40 12 40
12 40 4 -45 5 -45 8 53 c10 60 25 53 27 -13 1 -37 2 -36 13 20 12 62 25 58 27
-8 1 -24 4 -18 11 22 9 51 11 53 22 32 l12 -22 12 23 11 23 1 -25 2 -25 12 28
c13 30 26 26 26 -7 1 -17 3 -15 14 9 l14 30 10 -25 c10 -24 11 -24 11 -2 1 12
6 22 11 22 6 0 10 -10 11 -22 l0 -23 11 23 c14 28 28 28 29 0 1 -21 2 -20 11
5 11 31 28 27 28 -6 0 -18 2 -19 10 -7 5 8 10 26 11 40 1 24 1 24 14 -5 l13
-30 7 28 c7 26 8 26 21 10 13 -17 13 -17 14 0 0 28 18 20 23 -10 3 -24 5 -22
12 15 9 52 23 54 27 5 4 -36 4 -36 13 17 l9 55 10 -45 10 -45 12 50 c10 42 20
40 15 -2 -1 -7 2 -13 7 -13 6 0 13 17 18 38 l8 37 6 -45 6 -45 8 48 c10 58 26
61 27 5 l1 -43 12 53 c12 56 25 60 27 8 1 -28 2 -27 13 13 11 42 12 43 22 20
l11 -24 7 23 c7 22 8 22 22 5 12 -17 13 -17 14 0 0 25 18 21 23 -5 3 -19 5
-17 12 12 l9 35 11 -29 12 -29 8 29 8 29 13 -30 c11 -26 13 -27 14 -8 0 21 20
45 20 24 0 -6 5 -11 10 -11 6 0 10 10 10 22 0 28 17 12 23 -22 3 -20 5 -17 12
17 9 50 25 47 26 -5 1 -33 2 -34 9 -12 4 14 9 43 10 65 l2 40 12 -50 c11 -44
13 -47 19 -25 4 14 7 39 8 55 l1 30 11 -35 c11 -35 11 -35 15 -7 6 44 22 31
23 -20 2 -46 2 -46 13 22 12 72 25 71 27 -3 1 -32 3 -28 13 23 12 62 25 58 27
-8 1 -27 3 -24 13 18 l12 50 9 -35 8 -35 12 40 c9 28 13 33 14 18 1 -29 17
-29 26 0 7 20 8 18 14 -13 l7 -35 7 38 c9 44 27 40 28 -6 1 -30 2 -30 13 11
11 43 25 47 27 8 0 -14 4 -9 12 14 7 24 12 29 14 18 6 -25 23 -22 23 3 0 11 5
17 10 14 6 -3 10 -16 10 -28 0 -18 2 -19 10 -7 5 8 10 28 10 45 0 39 17 20 22
-25 3 -29 5 -24 12 28 10 71 25 66 27 -8 1 -44 2 -44 14 20 l12 65 8 -40 9
-40 11 50 c11 49 12 49 20 21 l8 -30 10 25 c10 24 11 23 17 -11 l6 -35 8 37
c10 44 26 41 27 -5 1 -28 3 -25 13 18 13 49 21 48 29 -5 3 -19 6 -15 12 20 l8
45 13 -30 12 -30 10 35 c10 33 10 34 11 7 1 -31 21 -28 21 4 0 33 20 21 21
-13 0 -28 2 -30 9 -13 5 11 9 36 9 55 2 46 20 20 22 -30 l1 -35 8 30 c11 41
11 255 0 280 -6 15 -9 4 -11 -40 l-2 -60 -9 63 c-10 66 -27 75 -29 14 -1 -32
-3 -30 -10 17 -12 69 -16 73 -25 25 l-8 -39 -12 55 c-11 49 -12 51 -14 20 -1
-19 -5 -44 -10 -55 -7 -17 -9 -14 -10 15 -1 19 -5 44 -10 55 -7 16 -9 13 -9
-17 -1 -43 -21 -63 -21 -21 0 15 -5 35 -10 43 -7 11 -10 5 -10 -22 0 -21 -4
-38 -10 -38 -5 0 -10 19 -10 42 0 36 -13 48 -16 15 -5 -55 -8 -52 -19 18 -12
75 -13 77 -14 30 -2 -67 -20 -97 -22 -35 0 25 -5 56 -9 70 -8 25 -8 24 -9 -5
-1 -16 -6 -37 -11 -45 -7 -12 -10 -8 -11 15 0 17 -4 39 -9 50 -8 18 -9 17 -9
-7 -1 -31 -21 -49 -21 -19 0 25 -20 28 -21 4 -1 -10 -7 0 -14 22 -9 27 -14 33
-14 18 -1 -12 -5 -24 -10 -28 -5 -3 -12 25 -16 62 -10 109 -12 113 -14 26 -1
-88 -21 -129 -22 -46 0 26 -4 66 -8 88 l-9 40 -1 -55 c-2 -71 -20 -104 -22
-40 -1 25 -5 59 -9 75 -7 27 -8 25 -9 -17 -1 -56 -21 -65 -22 -10 l-1 37 -11
-35 -11 -34 -12 49 c-10 43 -12 46 -13 18 -1 -43 -21 -53 -22 -11 0 18 -4 42
-9 53 -6 15 -9 8 -9 -27 -1 -56 -21 -65 -22 -10 -1 20 -5 48 -9 62 -8 25 -8
25 -10 -5 -1 -16 -2 -38 -1 -48 1 -9 -3 -17 -8 -17 -6 0 -11 17 -12 38 -1 20
-5 48 -9 62 -7 21 -8 18 -10 -20 l-2 -45 -13 45 c-7 25 -14 42 -15 38 -1 -5
-4 -12 -5 -18 -1 -5 -4 -13 -5 -17 -1 -5 -8 15 -15 42 -11 41 -13 45 -14 20
-1 -16 -6 -37 -11 -45 -7 -12 -10 -8 -11 15 0 17 -4 39 -9 50 -7 17 -9 16 -9
-10 -2 -57 -18 -59 -27 -3 -7 46 -8 49 -12 21 -4 -41 -22 -43 -22 -3 0 41 -20
38 -21 -2 l-1 -33 -8 30 c-4 17 -8 48 -9 69 -1 50 -9 43 -16 -14 -3 -24 -7
-45 -9 -47 -2 -2 -7 27 -11 64 -8 72 -9 72 -21 8 l-7 -40 -12 60 c-9 44 -13
52 -14 28 -2 -56 -19 -45 -29 19 l-9 63 -2 -55 c-1 -40 -4 -51 -11 -40 -5 8
-10 27 -10 43 0 15 -4 27 -10 27 -5 0 -10 -16 -10 -37 0 -20 -2 -34 -4 -32 -5
5 -15 102 -16 153 0 59 -9 38 -16 -40 -8 -87 -14 -95 -15 -18 0 32 -4 68 -8
79 -7 16 -9 14 -15 -15 l-8 -35 -13 45 -13 45 -2 -35 c-1 -19 -5 -44 -10 -55
-7 -16 -9 -12 -10 20 -1 22 -5 49 -10 60 -7 16 -9 13 -9 -17 -1 -51 -21 -60
-21 -9 0 66 -14 84 -21 26 l-5 -50 -9 55 -8 55 -13 -40 -12 -40 -2 35 c-1 19
-6 46 -10 60 -8 25 -8 24 -9 -5 -1 -16 -6 -37 -11 -45 -7 -11 -10 -6 -11 20 0
19 -5 46 -9 60 -7 23 -8 23 -9 3 -1 -12 -4 -30 -8 -40 -5 -14 -10 -7 -19 27
-12 45 -12 45 -13 11 -1 -45 -16 -30 -29 29 l-10 45 -1 -45 c-1 -33 -4 -41
-11 -30 -5 8 -10 29 -11 45 0 29 -1 28 -13 -10 l-12 -40 -9 85 -8 85 -8 -64
c-10 -83 -19 -89 -20 -15 0 32 -4 79 -8 104 l-8 45 -2 -55 c-2 -71 -20 -105
-22 -40 0 25 -4 65 -8 90 -8 44 -9 44 -10 -22 -1 -74 -20 -95 -22 -25 -1 23
-5 53 -9 67 -7 21 -8 19 -9 -17 -1 -24 -5 -43 -11 -43 -5 0 -10 19 -11 43 l-1
42 -12 -29 -13 -29 -8 44 c-5 28 -9 37 -12 24 -10 -50 -17 -45 -28 20 l-12 70
-2 -52 c-1 -60 -21 -73 -22 -15 0 20 -4 55 -8 77 l-9 40 -1 -50 c-2 -77 -20
-94 -22 -20 -1 82 -17 130 -18 58 -1 -63 -21 -72 -22 -10 -1 61 -17 96 -18 39
-1 -26 -5 -41 -11 -37 -5 3 -10 17 -10 31 0 33 -20 30 -21 -3 l-1 -28 -8 30
c-4 17 -9 48 -10 70 -2 40 -2 40 -13 -15 l-11 -55 -8 75 c-10 92 -16 110 -17
48 -1 -57 -20 -76 -22 -21 -1 21 -5 52 -9 68 -7 29 -8 28 -9 -11 -2 -65 -15
-61 -27 8 l-12 63 -1 -55 c-2 -65 -16 -51 -27 26 -9 68 -14 68 -15 -2 l-2 -59
-9 58 c-11 60 -27 77 -29 30 -1 -17 -7 -4 -14 32 -11 53 -15 54 -19 8 -4 -36
-15 -17 -21 34 -9 77 -13 88 -14 33 -2 -84 -18 -77 -28 11 -10 81 -10 82 -12
27 -1 -66 -21 -80 -22 -15 0 23 -4 60 -8 82 l-9 40 -1 -55 c-2 -65 -15 -53
-28 25 l-7 50 -6 -50 -6 -50 -8 43 c-10 47 -25 56 -27 15 l-1 -28 -8 30 c-4
17 -8 47 -9 68 -1 23 -5 36 -11 32 -6 -4 -8 -10 -6 -13 2 -4 1 -23 -4 -42 -7
-30 -8 -31 -10 -10 -5 69 -7 97 -9 119 -2 37 -10 20 -16 -34 -8 -68 -15 -69
-16 -4 -1 30 -5 68 -9 84 -7 29 -8 29 -10 -10 -4 -93 -20 -125 -21 -44 0 30
-4 77 -9 104 l-7 50 -3 -60 c-3 -90 -18 -126 -20 -50 -1 33 -5 80 -9 105 l-8
45 -2 -65 c-3 -90 -19 -125 -21 -45 -1 33 -5 78 -9 100 -9 40 -9 40 -10 -17
-1 -64 -21 -92 -22 -31 0 21 -4 56 -8 78 l-9 40 -1 -52 c-1 -57 -21 -86 -21
-31 0 18 -4 51 -8 73 -7 38 -7 36 -12 -30 l-6 -70 -8 63 c-10 71 -26 83 -27
20 -1 -53 -5 -42 -15 37 l-7 60 -10 -45 -11 -45 -7 64 c-11 84 -17 97 -18 34
-1 -60 -21 -84 -22 -26 0 21 -4 56 -8 78 l-9 40 -2 -45 c-3 -73 -18 -96 -20
-30 -1 30 -5 78 -10 105 l-7 50 -2 -56 c-2 -86 -15 -80 -27 13 -10 76 -11 79
-13 31 -2 -74 -17 -66 -27 15 l-8 67 -6 -55 c-6 -60 -10 -53 -28 50 l-9 55 -2
-55 c-2 -71 -16 -48 -27 45 l-8 70 -6 -50 -6 -50 -8 40 c-4 22 -11 49 -16 60
-7 17 -9 14 -10 -15 l-2 -35 -12 45 -12 45 -8 -35 -9 -35 -9 55 -10 54 -13
-29 -13 -30 -2 40 c-1 22 -5 58 -9 80 -8 36 -9 37 -10 10 -1 -16 -6 -37 -11
-45 -7 -11 -10 -5 -11 25 -1 22 -5 54 -9 70 l-8 30 -1 -36 c-2 -62 -16 -53
-27 18 -10 59 -11 63 -13 26 -2 -77 -19 -54 -26 34 -8 113 -13 126 -14 39 -1
-38 -4 -66 -8 -62 -5 4 -13 49 -19 99 -10 78 -12 84 -13 40 -2 -76 -18 -65
-29 20 -8 65 -9 67 -11 25 0 -27 -5 -48 -10 -48 -9 0 -13 20 -24 115 -2 17 -5
1 -6 -35 -3 -82 -17 -55 -30 58 l-8 77 -2 -70 c-3 -74 -19 -67 -20 8 -1 45
-20 50 -22 5 -1 -22 -5 -10 -12 32 -9 52 -12 58 -15 33 -5 -46 -18 -41 -26 10
-7 40 -8 41 -20 19 -11 -20 -13 -13 -25 70 -17 121 -19 126 -21 48 l-2 -65
-18 85 c-17 82 -17 84 -21 40 l-4 -45 -16 65 -17 65 -2 -65 -2 -65 -14 74
c-18 98 -22 106 -24 41 l-2 -55 -8 40 c-4 22 -11 67 -16 100 l-8 60 -6 -50 -6
-50 -8 50 c-11 74 -19 86 -26 40 -6 -39 -7 -39 -15 25 l-9 65 -11 -45 -11 -45
-7 40 c-4 22 -7 57 -7 78 0 51 -18 47 -22 -5 -3 -32 -6 -21 -12 45 -8 85 -25
118 -27 55 -1 -27 -4 -23 -12 20 -11 58 -26 69 -28 20 -1 -27 -4 -23 -12 20
-11 59 -24 68 -29 20 -3 -23 -6 -12 -12 37 -12 99 -24 124 -27 55 l-2 -55 -7
50 c-5 28 -9 71 -9 98 -1 26 -5 47 -11 47 -5 0 -10 -21 -11 -47 -1 -58 -5 -48
-14 30 -7 61 -24 78 -26 25 -1 -25 -4 -18 -13 25 -11 61 -25 67 -27 13 -2 -46
-18 46 -28 158 l-8 91 -3 -95 -3 -95 -13 104 c-17 130 -22 143 -24 61 l-2 -65
-18 85 -18 85 -2 -65 c-2 -63 -3 -64 -11 -25 -5 22 -12 65 -15 95 -9 78 -14
75 -14 -10 0 -40 -2 -71 -5 -68 -3 3 -12 72 -19 154 -12 135 -14 141 -15 69
-2 -103 -16 -81 -29 45 l-9 95 -2 -67 c0 -38 -5 -68 -10 -68 -5 0 -12 39 -16
88 -8 118 -12 131 -14 45 0 -40 -5 -73 -10 -73 -5 0 -13 53 -18 118 -8 99 -10
107 -11 50 -2 -86 -22 -90 -23 -5 -1 34 -5 91 -9 127 -7 65 -7 65 -9 15 -2
-71 -20 -96 -22 -30 0 28 -4 73 -9 100 l-7 50 -2 -61 c-2 -89 -14 -87 -27 3
l-11 78 -2 -67 c0 -38 -5 -68 -10 -68 -5 0 -13 37 -19 83 l-9 82 -2 -72 c0
-40 -5 -73 -10 -73 -5 0 -12 35 -16 78 -4 42 -8 82 -10 87 -2 6 -5 -107 -6
-250 l-2 -260 -8 205 c-9 212 -25 397 -27 310z m45 -792 c-1 -40 -3 -10 -3 67
0 77 1 110 3 73 2 -37 2 -100 0 -140z m10 -400 c-1 -40 -3 -10 -3 67 0 77 1
110 3 73 2 -37 2 -100 0 -140z m10 -380 c-2 -35 -3 -7 -3 62 0 69 1 97 3 63 2
-35 2 -91 0 -125z m20 -693 l-1 -190 -7 190 c-3 105 -6 276 -6 380 l1 190 7
-190 c3 -104 6 -275 6 -380z"/>
<path d="M5014 7500 c0 -85 2 -120 3 -77 2 42 2 112 0 155 -1 42 -3 7 -3 -78z"/>
<path d="M3613 7435 c0 -22 2 -30 4 -17 2 12 2 30 0 40 -3 9 -5 -1 -4 -23z"/>
<path d="M4824 7260 c0 -52 1 -74 3 -47 2 26 2 68 0 95 -2 26 -3 4 -3 -48z"/>
<path d="M5061 7137 c-1 -102 12 -614 28 -1147 l8 -245 1 215 c2 211 -25 1255
-33 1275 -2 6 -4 -39 -4 -98z"/>
<path d="M3542 7170 c0 -19 2 -27 5 -17 2 9 2 25 0 35 -3 9 -5 1 -5 -18z"/>
<path d="M4833 7070 c0 -25 2 -35 4 -22 2 12 2 32 0 45 -2 12 -4 2 -4 -23z"/>
<path d="M5023 7000 c0 -36 2 -50 4 -32 2 17 2 47 0 65 -2 17 -4 3 -4 -33z"/>
<path d="M4834 6895 c0 -71 1 -99 3 -62 2 37 2 96 0 130 -2 34 -3 4 -3 -68z"/>
<path d="M5643 6775 c0 -22 2 -30 4 -17 2 12 2 30 0 40 -3 9 -5 -1 -4 -23z"/>
<path d="M5032 6780 c0 -14 2 -19 5 -12 2 6 2 18 0 25 -3 6 -5 1 -5 -13z"/>
<path d="M5033 6645 c0 -38 2 -53 4 -32 2 20 2 52 0 70 -2 17 -4 1 -4 -38z"/>
<path d="M4844 6520 c0 -69 1 -97 3 -62 2 34 2 90 0 125 -2 34 -3 6 -3 -63z"/>
<path d="M3373 6570 c0 -36 2 -50 4 -32 2 17 2 47 0 65 -2 17 -4 3 -4 -33z"/>
<path d="M5043 6300 c0 -41 2 -58 4 -37 2 20 2 54 0 75 -2 20 -4 3 -4 -38z"/>
<path d="M4853 6160 c0 -47 2 -66 4 -42 2 23 2 61 0 85 -2 23 -4 4 -4 -43z"/>
<path d="M4864 5810 c0 -63 1 -89 3 -57 2 31 2 83 0 115 -2 31 -3 5 -3 -58z"/>
<path d="M4874 5465 c0 -88 2 -123 3 -77 2 46 2 118 0 160 -1 42 -3 5 -3 -83z"/>
<path d="M5104 5480 c0 -74 1 -105 3 -67 2 37 2 97 0 135 -2 37 -3 6 -3 -68z"/>
<path d="M2992 5440 c0 -14 2 -19 5 -12 2 6 2 18 0 25 -3 6 -5 1 -5 -13z"/>
<path d="M5114 5115 c0 -71 1 -99 3 -62 2 37 2 96 0 130 -2 34 -3 4 -3 -68z"/>
<path d="M4884 5080 c0 -74 1 -105 3 -67 2 37 2 97 0 135 -2 37 -3 6 -3 -68z"/>
<path d="M2821 4934 c0 -11 3 -14 6 -6 3 7 2 16 -1 19 -3 4 -6 -2 -5 -13z"/>
<path d="M4894 4750 c0 -52 1 -74 3 -47 2 26 2 68 0 95 -2 26 -3 4 -3 -48z"/>
<path d="M5124 4715 c0 -66 1 -92 3 -57 2 34 2 88 0 120 -2 31 -3 3 -3 -63z"/>
<path d="M5134 4375 c0 -66 1 -92 3 -57 2 34 2 88 0 120 -2 31 -3 3 -3 -63z"/>
<path d="M4904 4360 c0 -69 1 -97 3 -62 2 34 2 90 0 125 -2 34 -3 6 -3 -63z"/>
<path d="M4914 4005 c0 -66 1 -92 3 -57 2 34 2 88 0 120 -2 31 -3 3 -3 -63z"/>
<path d="M5143 3940 c0 -36 2 -50 4 -32 2 17 2 47 0 65 -2 17 -4 3 -4 -33z"/>
<path d="M4924 3635 c0 -71 1 -99 3 -62 2 37 2 96 0 130 -2 34 -3 4 -3 -68z"/>
<path d="M10482 3630 c0 -78 3 -117 8 -105 11 25 11 126 1 185 -7 34 -9 15 -9
-80z"/>
<path d="M10442 3620 c0 -77 3 -113 8 -95 4 17 8 59 8 95 0 36 -4 79 -8 95 -5
18 -8 -18 -8 -95z"/>
<path d="M10402 3610 c0 -112 1 -119 10 -67 6 36 6 84 0 125 -9 63 -9 60 -10
-58z"/>
<path d="M10517 3645 c-4 -38 -3 -83 2 -100 8 -28 9 -27 16 26 4 30 3 75 -2
100 l-9 44 -7 -70z"/>
<path d="M10364 3590 c0 -63 1 -89 3 -57 2 31 2 83 0 115 -2 31 -3 5 -3 -58z"/>
<path d="M10593 3550 c0 -111 2 -141 7 -105 10 63 10 191 0 230 -4 18 -8 -34
-7 -125z"/>
<path d="M10632 3530 c0 -97 3 -155 8 -140 11 33 11 214 1 265 -6 27 -9 -12
-9 -125z"/>
<path d="M10672 3525 c0 -103 3 -162 8 -150 10 24 10 152 0 250 -5 54 -7 31
-8 -100z"/>
<path d="M10551 3563 c1 -72 4 -98 9 -78 12 46 12 185 0 185 -6 0 -10 -42 -9
-107z"/>
<path d="M10706 3547 c-5 -81 -5 -144 2 -170 6 -25 10 -33 11 -19 2 45 21 20
22 -30 l2 -53 10 48 c6 26 14 47 19 47 5 0 8 -6 7 -12 -1 -7 0 -42 1 -78 l2
-65 12 70 c9 56 13 65 19 45 4 -14 7 -52 8 -85 1 -49 3 -54 9 -30 4 17 8 48 9
69 2 69 14 23 21 -79 1 -12 7 -4 15 20 l13 40 2 -70 c1 -49 4 -64 10 -50 5 11
9 33 9 48 2 53 21 16 22 -41 0 -41 3 -51 9 -37 5 11 9 36 10 55 2 32 3 33 10
10 4 -14 9 -50 10 -80 2 -43 4 -50 10 -30 4 14 9 41 10 60 l2 35 7 -30 c8 -37
4 -438 -6 -515 l-7 -55 -12 75 -11 75 -2 -61 c0 -34 -4 -77 -8 -95 -7 -33 -7
-32 -19 26 l-11 60 -2 -60 c-2 -79 -15 -101 -26 -43 l-8 43 -7 -63 c-8 -70
-20 -94 -20 -39 0 20 -4 39 -10 42 -6 4 -10 -14 -10 -47 0 -29 -5 -60 -10 -68
-7 -11 -10 -5 -10 23 0 23 -4 36 -10 32 -5 -3 -10 -22 -10 -41 0 -19 -4 -34
-10 -34 -5 0 -10 8 -10 18 0 28 -19 -7 -21 -38 -1 -25 -1 -25 -13 4 l-13 29
-8 -44 -7 -44 -12 40 -12 40 -8 -55 -9 -55 -12 50 -13 50 -2 -45 c-1 -25 -5
-54 -10 -65 -7 -17 -9 -14 -10 15 -1 19 -5 44 -10 55 -6 15 -9 8 -10 -30 -2
-67 -18 -107 -19 -48 -1 23 -5 45 -11 48 -6 4 -10 -13 -10 -44 0 -28 -4 -51
-10 -51 -5 0 -10 12 -10 26 0 36 -17 21 -18 -17 -1 -44 -10 -47 -17 -5 -4 20
-11 36 -17 36 -5 0 -7 -4 -4 -9 3 -5 3 -24 -1 -42 l-7 -34 -12 45 -12 45 -2
-35 c-1 -19 -6 -46 -10 -60 -7 -23 -8 -22 -10 10 -1 19 -5 44 -10 55 -7 16 -9
12 -10 -20 -1 -22 -5 -49 -10 -60 -7 -17 -9 -16 -9 10 -1 17 -6 37 -11 45 -7
11 -10 5 -11 -25 0 -22 -5 -51 -9 -65 -7 -22 -8 -21 -9 13 -1 47 -21 49 -21 3
0 -45 -20 -58 -21 -14 -1 37 -4 31 -15 -27 l-7 -40 -13 40 -12 40 -2 -35 c-1
-19 -5 -44 -10 -55 -7 -17 -9 -16 -9 10 -1 17 -6 37 -11 45 -7 11 -10 6 -10
-20 0 -45 -20 -79 -20 -35 0 17 -5 37 -10 45 -7 11 -10 6 -10 -20 0 -19 -5
-42 -10 -50 -7 -11 -10 -7 -10 18 0 17 -4 32 -10 32 -5 0 -10 -11 -10 -25 0
-14 -4 -25 -10 -25 -5 0 -10 12 -10 26 0 15 -4 23 -11 19 -6 -4 -8 -13 -6 -19
3 -7 1 -19 -3 -27 -10 -15 -14 -8 -23 36 -2 11 -8 -5 -12 -35 l-9 -55 -10 55
-10 55 -7 -68 c-4 -38 -10 -71 -12 -73 -2 -3 -8 24 -13 58 -7 57 -8 59 -11 23
-2 -22 -6 -56 -10 -75 -6 -34 -6 -34 -18 25 l-12 60 -2 -50 c-1 -54 -21 -102
-21 -52 0 15 -4 27 -10 27 -5 0 -10 -12 -10 -27 -1 -26 -2 -27 -14 -10 -13 17
-15 16 -22 -15 l-7 -33 -13 45 -12 45 -1 -35 c-2 -57 -17 -68 -27 -18 l-8 43
-4 -40 c-5 -57 -18 -63 -28 -13 l-8 43 -4 -43 c-3 -41 -22 -51 -22 -11 0 32
-17 21 -18 -12 -1 -47 -10 -47 -18 -1 -9 55 -20 45 -23 -20 -2 -65 -11 -77
-12 -17 -1 24 -5 58 -9 74 -6 25 -8 20 -10 -30 -1 -33 -6 -71 -10 -85 -7 -22
-8 -20 -10 15 -1 22 -6 51 -10 65 -6 20 -8 13 -10 -30 -2 -67 -18 -115 -20
-60 -1 19 -5 44 -10 55 -6 15 -9 8 -9 -27 -1 -26 -5 -50 -11 -53 -5 -3 -10 3
-10 14 0 35 -20 23 -21 -11 l-1 -33 -10 35 -11 35 -7 -33 c-10 -42 -20 -53
-20 -21 0 13 -5 31 -10 39 -7 12 -10 8 -10 -15 0 -16 -5 -37 -10 -45 -7 -11
-10 -7 -10 17 0 17 -4 35 -10 38 -6 4 -10 -6 -10 -24 0 -16 -4 -33 -10 -36 -6
-4 -10 5 -10 20 0 31 -20 24 -21 -8 -1 -15 -5 -9 -14 18 -11 34 -14 36 -16 15
-1 -14 -3 -29 -4 -35 -2 -5 -3 -17 -4 -25 -1 -13 -3 -13 -10 -1 -5 8 -7 19 -5
26 3 6 0 22 -5 36 -9 23 -10 22 -11 -11 -1 -19 -6 -46 -10 -60 -7 -22 -8 -20
-10 15 -1 22 -5 49 -10 60 -7 15 -9 10 -10 -25 -1 -25 -5 -54 -10 -65 -7 -17
-9 -15 -9 12 -2 60 -16 72 -22 18 -5 -44 -7 -47 -14 -25 -8 23 -10 21 -21 -25
-10 -42 -12 -45 -14 -20 -1 17 -5 39 -10 50 -7 16 -9 12 -10 -20 -1 -22 -5
-49 -10 -60 -7 -17 -9 -14 -10 15 -1 19 -6 46 -10 60 -7 21 -8 17 -9 -22 -2
-76 -13 -91 -27 -33 l-12 50 -1 -42 c-1 -42 -21 -63 -21 -22 0 27 -20 14 -20
-14 -1 -19 -3 -18 -14 8 -8 19 -15 25 -20 17 -4 -7 -5 -15 -3 -19 3 -5 1 -17
-4 -28 -6 -17 -8 -15 -8 11 -1 46 -14 50 -27 7 -12 -37 -12 -37 -13 -8 -1 17
-6 37 -11 45 -7 11 -10 5 -10 -22 0 -41 -16 -52 -22 -15 -4 19 -6 17 -14 -13
l-10 -35 -8 35 -9 35 -7 -38 c-9 -47 -20 -59 -20 -21 0 16 -5 36 -10 44 -7 11
-10 6 -11 -20 0 -19 -4 -44 -9 -55 -7 -15 -9 -10 -9 23 -1 23 -5 42 -11 42 -5
0 -10 -20 -10 -45 0 -25 -4 -45 -10 -45 -5 0 -10 18 -10 40 0 22 -4 40 -9 40
-5 0 -9 -15 -9 -32 0 -18 0 -40 -1 -48 -3 -30 -21 13 -21 49 0 51 -11 30 -17
-31 -5 -64 -13 -75 -14 -22 -1 21 -5 53 -9 69 -6 24 -8 19 -9 -30 -2 -87 -16
-100 -27 -23 l-8 63 -5 -62 c-8 -80 -16 -87 -27 -21 l-8 53 -6 -60 c-4 -52 -6
-56 -13 -31 -9 31 -15 30 -22 -4 -6 -32 -15 -38 -15 -9 0 13 -5 31 -10 39 -7
11 -10 7 -10 -17 0 -17 -4 -35 -10 -38 -6 -3 -10 5 -10 19 0 38 -18 41 -23 4
-4 -30 -5 -31 -12 -10 -10 30 -25 28 -25 -4 0 -14 -4 -23 -10 -19 -5 3 -10 15
-10 26 0 10 -5 19 -11 19 -6 0 -9 -6 -6 -13 3 -8 2 -19 -3 -26 -4 -8 -9 -1
-13 19 -4 19 -11 29 -18 25 -6 -4 -8 -12 -6 -19 2 -6 1 -20 -4 -31 -7 -18 -8
-18 -8 5 -2 49 -18 54 -26 8 l-8 -43 -7 33 c-10 45 -20 52 -20 14 0 -36 -20
-55 -21 -20 -1 15 -6 7 -14 -22 l-13 -45 -2 35 c-1 19 -5 44 -10 55 -7 15 -9
10 -10 -25 -1 -25 -5 -54 -10 -65 -7 -16 -9 -12 -10 20 -1 22 -5 49 -10 60 -7
15 -9 10 -10 -25 -2 -73 -18 -96 -19 -27 -1 33 -5 57 -12 57 -5 0 -9 -8 -8
-17 3 -35 -1 -96 -7 -91 -5 5 -10 38 -13 81 0 9 -4 17 -8 17 -5 0 -9 -25 -10
-56 -3 -66 -13 -86 -14 -28 -1 21 -5 50 -9 64 -6 19 -8 13 -9 -30 -2 -67 -20
-106 -22 -45 -1 65 -17 90 -18 28 -1 -57 -21 -85 -22 -31 l-1 33 -12 -35 -13
-35 -11 30 c-8 25 -11 26 -11 8 -1 -12 -4 -29 -8 -39 -5 -14 -9 -9 -19 22
l-12 39 -1 -32 c-1 -34 -21 -57 -21 -24 0 11 -4 23 -10 26 -6 4 -10 -5 -10
-19 0 -14 -4 -26 -10 -26 -5 0 -10 9 -10 21 0 27 -20 14 -21 -14 -1 -12 -6 -3
-12 21 -9 39 -25 59 -24 30 0 -7 -1 -29 -2 -48 -3 -34 -3 -34 -16 15 -12 48
-13 49 -15 15 -1 -19 -5 -44 -10 -55 -7 -17 -9 -15 -9 12 -1 43 -19 51 -23 11
l-4 -33 -11 25 -12 25 -1 -25 c-1 -49 -17 -54 -25 -8 l-9 43 -4 -35 c-4 -44
-22 -65 -22 -27 0 15 -4 27 -10 27 -5 0 -10 -17 -10 -37 0 -28 -3 -34 -10 -23
-5 8 -10 25 -10 38 0 38 -17 16 -18 -24 -2 -45 -12 -59 -13 -18 0 27 -15 75
-19 64 -1 -3 -4 -23 -5 -45 -4 -56 -6 -56 -20 0 l-13 50 -1 -47 c-1 -62 -16
-62 -29 -1 l-10 48 -1 -65 c-2 -56 -4 -61 -13 -40 l-10 25 -11 -30 -11 -30
-12 45 -12 45 -1 -42 c-1 -44 -21 -72 -21 -29 0 14 -4 28 -10 31 -6 4 -10 -5
-10 -19 0 -14 -4 -26 -10 -26 -5 0 -10 9 -10 20 0 11 -5 20 -10 20 -6 0 -10
-6 -9 -12 3 -26 -1 -39 -11 -33 -5 3 -10 18 -10 32 0 25 -14 25 -16 0 -6 -62
-6 -62 -19 -17 l-13 45 -1 -36 c-1 -53 -14 -56 -27 -7 l-12 43 -1 -42 c-1 -49
-12 -55 -28 -16 l-11 28 -1 -30 c-2 -29 -2 -29 -16 -11 -15 19 -15 19 -15 -1
0 -35 -17 -35 -25 0 -8 30 -8 31 -12 7 -7 -40 -20 -44 -28 -8 l-9 33 -3 -33
c-4 -34 -23 -35 -23 -1 0 32 -17 21 -18 -12 -1 -48 -11 -47 -19 2 l-7 44 -11
-45 -11 -45 -9 45 -9 45 -4 -40 c-5 -57 -18 -63 -28 -13 l-8 43 -4 -38 c-4
-42 -14 -47 -30 -14 -9 19 -11 16 -12 -28 l-2 -50 -11 45 -10 45 -8 -48 c-9
-60 -19 -72 -20 -26 -1 19 -5 45 -9 59 -7 21 -8 18 -9 -20 -2 -58 -21 -92 -21
-37 0 20 -5 37 -11 37 -6 0 -9 -9 -6 -19 2 -10 1 -25 -4 -32 -6 -10 -10 -5
-15 18 -4 18 -11 30 -16 27 -5 -3 -6 -14 -3 -25 4 -10 2 -26 -3 -35 -7 -13
-11 -6 -17 27 -5 27 -9 36 -12 24 -14 -71 -15 -73 -29 -30 l-12 40 -1 -32 c-1
-39 -16 -51 -26 -20 -7 21 -8 20 -14 -8 l-7 -30 -11 30 c-9 24 -12 26 -12 9
-1 -32 -14 -37 -28 -12 l-12 23 -1 -22 c0 -13 -4 -23 -8 -23 -5 0 -14 10 -21
23 -6 12 -10 15 -8 7 2 -8 1 -24 -4 -35 -6 -17 -8 -16 -14 13 -7 31 -23 45
-22 20 1 -45 -5 -51 -18 -18 -12 32 -14 33 -14 9 -1 -38 -13 -43 -27 -12 -11
26 -12 26 -13 6 -1 -25 -16 -31 -24 -10 -4 7 -9 2 -13 -12 l-7 -23 -13 28 -12
29 -1 -27 c-1 -31 -21 -49 -21 -19 0 31 -18 34 -23 4 -4 -27 -4 -27 -12 -5
-10 31 -25 28 -26 -5 -1 -27 -1 -27 -10 6 -13 43 -23 33 -29 -29 -1 -8 -8 1
-15 20 -10 27 -14 30 -14 13 -1 -12 -4 -30 -8 -40 -6 -14 -10 -10 -19 22 l-12
40 -1 -32 c-1 -35 -17 -45 -23 -15 -3 9 -8 -3 -13 -28 l-8 -45 -12 50 c-11 43
-13 46 -14 18 0 -17 -4 -40 -8 -50 -5 -14 -10 -7 -19 27 l-12 45 -1 -42 c-1
-42 -21 -63 -21 -23 0 11 -5 20 -11 20 -5 0 -9 -8 -8 -17 4 -45 -4 -43 -16 2
-10 41 -13 45 -14 20 -1 -16 -4 -41 -8 -55 -6 -22 -7 -21 -19 15 l-12 40 -1
-40 c-1 -34 -3 -37 -13 -21 -10 18 -11 18 -23 -4 -12 -22 -12 -22 -20 11 -7
32 -8 32 -12 9 -6 -31 -23 -51 -23 -27 0 26 -20 20 -21 -5 l-1 -23 -6 23 c-10
33 -26 32 -32 -3 l-6 -30 -7 33 c-4 19 -11 31 -17 27 -6 -4 -9 -12 -8 -18 2
-7 -2 -13 -7 -14 -6 -2 -10 4 -10 11 0 8 -4 18 -8 22 -4 4 -7 -4 -7 -18 0 -25
-2 -26 -55 -23 -50 2 -55 0 -56 -19 0 -20 -1 -20 -9 1 -12 29 -30 29 -31 1 -1
-16 -5 -11 -14 17 l-12 40 -9 -40 -8 -40 -12 40 -11 40 -8 -40 c-8 -37 -8 -38
-17 -15 l-9 25 -13 -23 -12 -23 -12 23 -11 23 0 -22 c-1 -25 -21 -32 -21 -8 0
8 -4 15 -10 15 -5 0 -10 -10 -10 -22 0 -12 -3 -18 -7 -14 -5 4 -8 12 -8 17 0
5 -4 8 -10 7 -5 -2 -8 -9 -7 -17 2 -7 -2 -11 -10 -9 -7 3 -12 12 -10 22 2 9
-2 16 -8 16 -5 0 -10 -10 -10 -22 0 -13 -5 -30 -10 -38 -8 -12 -10 -11 -10 8
0 32 -20 27 -21 -5 0 -16 -3 -21 -6 -13 -14 44 -16 44 -28 10 -13 -33 -14 -34
-14 -8 -1 31 -21 49 -21 19 0 -25 -20 -28 -21 -3 -1 9 -6 -1 -12 -23 l-10 -40
-13 40 -12 40 -1 -37 c-1 -49 -16 -49 -29 -1 l-10 38 -1 -37 c-1 -21 -5 -38
-11 -38 -5 0 -10 6 -10 14 0 8 -5 18 -11 22 -7 4 -9 -2 -7 -14 4 -29 -15 -29
-24 0 -6 22 -6 22 -7 1 -1 -12 -4 -30 -8 -40 -6 -14 -10 -10 -19 22 -11 36
-13 37 -13 12 -1 -24 -4 -27 -21 -22 -15 5 -20 2 -20 -11 0 -17 -1 -17 -13 1
-13 17 -14 17 -21 -6 l-7 -24 -11 25 c-11 25 -11 25 -15 2 -5 -25 -23 -31 -23
-7 0 8 -4 15 -10 15 -5 0 -10 -8 -10 -17 0 -15 -2 -14 -15 3 -13 17 -14 17
-15 2 0 -22 -20 -24 -20 -3 0 8 -4 15 -10 15 -5 0 -10 -7 -10 -15 0 -21 -18
-19 -23 3 -4 16 -5 16 -6 0 -1 -23 -17 -23 -26 0 -6 15 -8 14 -18 -8 -10 -25
-10 -25 -14 -2 -5 27 -23 29 -23 2 0 -28 -20 -25 -21 3 -1 20 -2 19 -11 -6 -6
-16 -14 -24 -21 -20 -6 4 -21 8 -34 9 -17 2 -23 -3 -24 -19 -1 -17 -2 -18 -6
-4 -6 22 -33 22 -34 0 0 -14 -3 -12 -10 5 -10 25 -29 21 -30 -6 0 -12 -4 -9
-11 8 -11 25 -11 25 -15 2 -5 -25 -23 -31 -23 -7 0 23 -18 18 -23 -8 l-4 -22
-8 23 c-4 12 -12 22 -17 22 -5 0 -7 -4 -4 -8 2 -4 1 -14 -5 -22 -7 -12 -9 -10
-9 8 0 13 -6 22 -15 22 -9 0 -12 -6 -9 -15 4 -8 1 -15 -4 -15 -6 0 -12 8 -15
18 -2 10 -7 0 -12 -23 l-8 -40 -13 40 c-9 30 -12 34 -14 18 -1 -13 -4 -27 -5
-33 -1 -5 -3 -13 -4 -17 -1 -5 -7 3 -14 17 l-11 25 -4 -28 c-4 -31 -22 -27
-22 5 0 21 -14 17 -16 -5 -5 -50 -6 -51 -19 -17 -11 29 -14 31 -15 13 -4 -37
-5 -41 -12 -49 -5 -4 -8 2 -8 14 0 12 -4 22 -10 22 -5 0 -10 -9 -10 -20 0 -28
-20 -25 -21 3 0 21 -1 21 -11 -3 l-10 -25 -11 25 c-10 25 -10 25 -14 3 -5 -26
-23 -32 -23 -8 0 8 -5 15 -11 15 -6 0 -9 -7 -5 -15 3 -9 0 -15 -9 -15 -8 0
-15 7 -15 15 0 8 -4 15 -9 15 -5 0 -8 -6 -7 -12 0 -7 -3 -13 -9 -13 -5 0 -9 6
-9 13 3 19 -13 14 -19 -7 -3 -14 -12 -18 -41 -16 -22 2 -36 -1 -36 -8 0 -8 -3
-8 -8 -2 -9 13 -62 16 -62 3 0 -5 -5 -6 -12 -2 -17 11 -58 11 -65 1 -2 -4 -11
-3 -19 4 -11 9 -14 8 -15 -7 0 -11 -3 -14 -6 -6 -7 18 -31 15 -36 -6 -4 -16
-5 -16 -6 1 0 9 -8 17 -16 17 -9 0 -12 -6 -9 -15 4 -8 1 -15 -5 -15 -6 0 -11
7 -11 15 0 8 -4 15 -10 15 -5 0 -10 -7 -10 -15 0 -8 -4 -15 -10 -15 -5 0 -10
7 -10 15 0 8 -5 15 -11 15 -6 0 -9 -7 -5 -15 3 -9 0 -15 -9 -15 -9 0 -12 6 -9
15 4 9 0 15 -10 15 -10 0 -13 -6 -10 -15 7 -16 7 -16 -144 -19 -63 -1 -73 -4
-79 -21 -5 -18 -7 -18 -16 5 -10 25 -10 25 -14 3 -5 -26 -23 -32 -23 -8 0 21
-18 19 -23 -2 -4 -17 -5 -17 -6 0 -1 21 -21 23 -21 2 0 -8 -4 -15 -10 -15 -5
0 -10 7 -10 15 0 8 -5 15 -11 15 -6 0 -9 -7 -6 -15 4 -8 2 -17 -4 -21 -6 -3
-13 3 -16 15 -3 12 -10 21 -15 21 -5 0 -7 -4 -4 -9 4 -5 3 -17 0 -26 -5 -13
-9 -14 -15 -4 -6 10 -11 10 -23 0 -9 -8 -16 -9 -16 -4 0 5 -14 10 -30 10 -21
0 -29 -4 -26 -13 3 -8 1 -16 -5 -19 -5 -4 -13 4 -18 17 -10 23 -10 23 -10 1
-1 -28 -21 -41 -21 -14 0 12 -4 21 -10 21 -5 0 -7 -6 -4 -14 3 -8 0 -17 -7
-22 -7 -4 -15 -2 -17 4 -6 19 -22 3 -23 -21 l0 -22 -9 23 c-5 12 -12 22 -15
22 -3 0 -10 -10 -15 -22 l-9 -23 0 23 c-1 27 -21 30 -21 2 0 -11 -4 -20 -10
-20 -5 0 -10 9 -10 20 0 27 -18 25 -23 -3 -4 -22 -4 -22 -15 3 -10 24 -11 24
-11 3 -1 -25 -21 -32 -21 -8 0 8 -4 15 -10 15 -5 0 -10 -7 -10 -15 0 -21 -18
-19 -23 3 -4 16 -5 16 -6 0 0 -10 -8 -18 -16 -18 -9 0 -12 6 -9 15 4 8 1 15
-5 15 -6 0 -11 -7 -11 -15 0 -8 -4 -15 -10 -15 -5 0 -10 7 -10 15 0 8 -4 15
-10 15 -5 0 -10 -7 -10 -15 0 -18 13 -17 -219 -20 -169 -2 -185 -4 -191 -21
-6 -16 -7 -16 -13 5 -3 13 -10 20 -16 16 -6 -3 -9 -10 -6 -15 3 -5 1 -11 -5
-15 -5 -3 -10 1 -10 9 0 9 -4 16 -10 16 -5 0 -10 -7 -10 -15 0 -8 -4 -15 -10
-15 -5 0 -10 7 -10 15 0 8 -5 15 -11 15 -6 0 -9 -7 -5 -15 4 -12 -3 -15 -32
-16 -20 -1 -66 -3 -102 -4 -36 -2 -129 -4 -207 -5 -163 -2 -195 -19 -40 -21
l102 -2 -135 -8 c-214 -13 -232 -15 -113 -17 61 -1 114 -6 118 -11 3 -6 -5 -9
-17 -9 -13 1 -39 0 -58 -2 -62 -6 85 -16 218 -16 111 1 122 -1 122 -17 0 -10
5 -15 10 -12 6 4 8 11 5 16 -4 5 1 9 9 9 9 0 16 -7 16 -15 0 -8 5 -15 11 -15
6 0 9 7 5 15 -3 9 0 15 9 15 8 0 15 -6 15 -14 0 -10 16 -13 62 -12 45 1 62 5
60 14 -1 6 2 12 8 12 5 0 10 -6 10 -13 0 -9 25 -13 93 -15 50 -2 118 -3 150
-4 31 -1 57 -6 57 -12 0 -5 6 -1 14 10 14 18 15 18 21 1 7 -17 8 -17 20 0 13
17 14 17 21 0 5 -14 9 -15 15 -6 10 17 50 19 56 2 4 -11 8 -10 18 3 11 16 13
16 23 -2 11 -18 11 -18 12 0 0 14 3 16 13 7 10 -8 17 -7 25 1 8 8 13 7 18 -6
6 -15 7 -15 19 1 13 17 14 17 21 0 5 -14 9 -15 14 -6 10 15 60 21 60 7 0 -7 5
-6 14 1 11 10 17 8 25 -6 9 -15 10 -15 11 -2 0 12 11 16 48 15 26 0 50 -5 54
-11 5 -6 8 -6 8 1 0 7 15 11 40 10 22 -1 40 2 40 7 0 5 6 4 14 -2 8 -7 17 -8
20 -3 3 5 21 8 40 7 26 -3 36 1 39 13 4 15 5 15 6 0 1 -23 28 -23 34 -1 4 16
5 16 6 1 1 -23 61 -22 61 1 1 14 2 13 11 -2 13 -22 26 -22 32 0 4 17 5 17 6 1
1 -21 17 -24 24 -5 4 9 8 8 16 -3 9 -13 12 -11 17 9 l7 23 13 -23 13 -24 9 25
10 25 9 -24 10 -25 7 25 8 24 8 -25 7 -25 11 25 10 25 9 -24 10 -25 7 25 c7
20 9 21 13 6 6 -21 23 -23 23 -2 0 24 18 18 22 -7 4 -20 6 -18 15 12 l10 35
10 -35 9 -35 8 28 c4 18 11 25 19 20 23 -14 49 -10 57 11 7 20 7 20 15 -3 l7
-24 14 24 c10 18 13 20 14 7 0 -26 18 -22 22 5 4 19 6 17 15 -13 l10 -35 7 33
c9 37 26 34 27 -6 1 -26 1 -26 10 5 11 39 17 41 29 10 l9 -22 0 23 c1 28 21
29 21 0 0 -12 3 -18 8 -14 4 4 7 13 7 18 0 22 24 18 28 -4 l4 -23 2 23 c1 23
26 27 26 4 0 -5 3 -14 7 -18 5 -4 8 2 8 14 0 12 5 22 10 22 6 0 10 -10 10 -22
0 -28 17 -12 23 22 4 23 5 22 12 -10 l8 -34 12 34 13 35 7 -29 c8 -28 9 -29
16 -8 5 13 14 20 23 16 8 -3 16 2 19 13 4 16 5 16 6 1 1 -23 28 -23 34 -1 4
17 5 17 6 1 1 -19 21 -26 21 -7 0 20 20 -3 21 -24 0 -17 4 -14 13 13 l13 35
10 -35 10 -35 8 40 c8 38 8 38 18 15 l10 -25 4 22 c3 13 8 23 13 23 5 0 11
-10 13 -23 l4 -22 8 23 c9 28 22 28 28 -1 l4 -22 2 23 c1 24 21 31 21 7 0 -8
5 -15 10 -15 6 0 10 9 10 21 0 27 20 14 20 -14 1 -19 3 -18 14 8 l14 30 9 -24
10 -25 6 25 c6 20 9 22 18 9 8 -11 12 -12 16 -2 8 20 23 14 24 -10 0 -18 3
-15 13 12 7 20 15 29 17 21 6 -17 59 -24 59 -8 0 7 7 4 14 -6 14 -18 15 -17
21 3 6 20 8 20 19 4 9 -11 15 -13 20 -6 4 6 13 9 21 5 10 -3 15 1 15 13 1 16
3 14 15 -6 l14 -25 9 24 9 25 7 -25 6 -24 15 25 c11 19 14 21 15 8 0 -10 5
-18 10 -18 6 0 10 8 10 18 1 16 1 16 11 0 5 -10 14 -18 19 -18 6 0 10 8 10 18
1 16 1 16 11 -1 6 -9 15 -15 20 -12 5 4 7 11 4 16 -9 13 9 11 23 -3 9 -9 12
-9 12 0 0 19 20 14 21 -5 0 -13 3 -11 10 7 10 23 11 24 24 7 8 -12 14 -14 17
-6 2 6 16 13 31 15 20 2 27 -2 27 -14 0 -14 2 -15 10 -2 13 21 100 22 100 1 1
-13 2 -13 11 2 5 9 14 17 19 17 5 0 11 -8 13 -17 4 -16 5 -16 6 -1 1 13 9 16
41 13 32 -3 40 0 40 13 0 13 2 13 14 -4 14 -18 15 -18 21 -1 7 17 8 17 21 0 9
-12 13 -14 14 -5 0 9 7 11 19 7 14 -4 21 0 24 12 4 17 5 17 6 1 1 -23 28 -23
34 -1 4 17 5 17 6 1 1 -22 21 -24 21 -3 0 8 5 15 10 15 6 0 10 -7 10 -15 0 -8
5 -15 10 -15 6 0 10 12 10 27 0 32 16 20 23 -17 4 -24 4 -23 12 7 8 35 25 35
26 0 0 -14 5 -8 13 18 l12 40 11 -40 c7 -27 11 -33 12 -17 1 19 5 22 21 17 16
-5 20 -2 20 14 0 12 4 21 9 21 5 0 8 -6 7 -12 0 -7 4 -13 9 -13 6 0 9 6 9 13
-1 6 2 12 7 12 5 0 9 -7 9 -15 0 -8 5 -15 10 -15 6 0 10 9 10 20 0 11 5 20 10
20 6 0 10 -12 10 -27 0 -22 2 -25 10 -13 5 8 10 26 10 40 0 20 2 22 10 10 5
-8 10 -26 11 -40 1 -18 5 -12 13 20 l12 45 11 -40 c7 -24 11 -31 12 -18 1 12
4 30 8 40 6 16 8 15 14 -7 l7 -25 8 24 7 23 13 -23 13 -24 10 25 c7 18 10 20
10 8 1 -22 21 -24 21 -3 0 31 20 14 21 -17 l1 -33 10 38 c6 20 14 37 19 37 5
0 9 -17 10 -37 l1 -38 10 43 c9 43 27 49 29 9 1 -21 2 -19 15 23 5 13 6 13 15
0 8 -13 10 -13 18 0 8 12 12 10 19 -9 6 -18 10 -21 14 -9 4 10 18 14 38 13 26
-2 34 3 38 19 5 19 7 18 18 -9 l12 -30 8 30 7 30 13 -29 12 -30 7 34 7 34 13
-30 c12 -29 12 -29 19 -6 7 22 8 22 22 5 12 -17 13 -17 14 0 0 9 4 17 9 17 5
0 11 -8 14 -17 3 -15 6 -14 15 7 l11 25 7 -22 c3 -13 10 -20 15 -17 5 3 7 10
4 15 -4 5 -1 9 4 9 6 0 11 -8 11 -17 0 -9 3 -13 8 -9 4 4 7 13 7 19 0 5 6 12
13 15 7 2 12 -5 12 -18 0 -12 5 -18 10 -15 6 3 10 15 10 26 0 11 5 17 10 14 6
-3 10 -15 10 -26 0 -11 5 -17 10 -14 6 3 10 15 10 26 0 11 5 17 10 14 6 -3 10
-15 10 -26 0 -11 4 -18 10 -14 5 3 7 12 4 19 -3 8 -1 17 5 21 10 5 15 -7 12
-27 -3 -20 18 -5 22 15 4 22 4 22 14 -3 l11 -25 7 28 c7 25 9 26 20 11 8 -12
14 -13 19 -6 4 6 13 9 21 5 10 -3 15 2 15 17 0 11 5 18 10 15 6 -3 10 -16 10
-27 0 -29 11 -16 20 24 l7 33 8 -45 c7 -35 10 -40 16 -25 4 11 8 34 9 50 1 29
2 29 11 7 5 -13 7 -28 4 -32 -3 -5 -1 -11 5 -15 6 -4 10 8 10 30 0 22 4 34 10
30 6 -3 10 -21 10 -38 0 -44 19 -15 21 33 1 33 2 32 13 -15 l13 -50 10 50 c7
34 11 41 12 23 1 -32 21 -39 21 -8 0 36 19 21 22 -18 4 -36 4 -35 12 16 10 60
25 53 27 -13 1 -38 2 -37 14 20 l12 60 9 -45 8 -45 10 45 c7 32 11 39 14 23 4
-29 22 -30 22 -2 0 36 20 9 21 -29 1 -37 1 -37 12 11 12 50 26 54 28 8 0 -24
1 -24 13 8 l12 33 11 -23 c9 -19 12 -20 12 -6 1 25 21 21 22 -5 1 -21 2 -20
11 5 11 31 28 27 29 -6 0 -17 4 -14 14 13 l13 35 8 -30 8 -30 9 35 c7 23 12
29 14 18 3 -10 9 -18 14 -18 5 0 9 8 10 18 0 11 5 8 13 -11 13 -29 26 -27 26
5 0 26 18 22 23 -4 l4 -23 8 23 c7 20 9 21 20 6 11 -15 12 -15 19 2 8 18 8 18
16 -1 9 -19 9 -19 16 2 8 27 24 21 25 -10 1 -19 2 -18 14 8 l13 30 11 -25 c5
-14 11 -22 12 -17 1 4 3 12 4 17 1 6 3 16 4 23 1 8 4 8 10 -3 6 -8 7 -18 5
-22 -3 -4 0 -8 5 -8 6 0 11 9 11 20 0 27 18 25 23 -2 3 -17 6 -11 12 20 9 48
24 40 26 -13 1 -28 2 -28 11 9 11 39 11 39 24 15 l13 -24 1 29 c0 35 16 25 23
-14 3 -20 5 -17 12 18 9 50 16 47 25 -11 l6 -42 11 65 c7 42 11 53 12 33 1
-35 21 -47 21 -14 0 11 5 23 10 26 6 4 10 -5 10 -20 0 -15 4 -24 10 -20 6 3
10 21 10 38 0 24 3 28 10 17 5 -8 10 -28 11 -45 1 -25 4 -21 14 20 l13 50 8
-45 8 -45 12 45 c7 26 12 36 13 23 1 -13 5 -23 10 -23 5 0 12 10 16 23 7 19 9
17 14 -18 l7 -40 8 44 c9 48 25 40 27 -14 1 -26 2 -25 11 13 10 48 28 47 29
-1 l1 -32 11 38 c7 22 15 36 19 32 4 -4 4 -13 1 -21 -3 -8 0 -14 6 -14 6 0 11
8 11 18 0 25 60 27 61 3 0 -9 6 -3 14 13 l12 30 8 -24 7 -23 14 24 c10 18 13
20 14 7 0 -10 5 -18 10 -18 6 0 10 8 10 18 1 13 4 12 14 -7 l13 -24 11 29 c10
28 11 28 17 7 9 -27 25 -20 25 10 0 17 2 19 9 7 6 -8 8 -17 5 -21 -2 -4 0 -10
6 -14 6 -3 10 4 10 18 0 32 10 40 26 19 12 -15 13 -13 14 16 0 20 4 31 10 27
6 -3 10 -17 10 -31 0 -40 20 -17 21 24 0 30 2 33 9 17 5 -11 9 -33 10 -50 1
-26 3 -27 10 -10 5 11 9 38 10 60 l2 40 11 -45 10 -45 13 40 12 40 4 -50 4
-50 8 52 c10 62 21 62 25 1 3 -59 9 -59 17 1 8 59 24 58 25 -2 l1 -42 13 55
12 55 10 -35 c11 -33 11 -33 12 -7 1 32 21 37 22 5 1 -16 5 -11 14 17 13 40
20 37 28 -15 2 -20 5 -16 14 20 l10 45 10 -35 10 -35 8 34 c7 33 8 34 21 16 8
-10 14 -13 14 -7 0 22 20 12 21 -10 0 -19 3 -17 13 10 13 36 25 33 27 -7 1
-21 3 -19 14 14 11 38 12 39 20 15 l8 -25 13 30 c11 26 13 27 14 8 0 -32 20
-29 20 3 0 37 20 19 21 -19 0 -27 2 -29 9 -12 5 11 9 36 10 55 1 29 3 32 10
15 5 -11 9 -33 10 -50 1 -26 3 -27 10 -10 5 11 9 36 9 55 1 26 4 31 11 20 5
-8 10 -26 11 -40 0 -23 1 -23 9 -5 5 11 10 34 11 50 2 24 3 21 9 -15 l7 -45 8
33 c11 45 25 40 26 -10 1 -40 2 -38 13 22 13 72 25 63 27 -18 1 -45 2 -44 13
23 12 70 12 70 22 35 l10 -35 8 35 c8 35 8 35 18 10 l11 -25 7 30 c7 32 16 23
23 -25 3 -20 5 -16 12 17 9 48 24 48 26 0 l1 -32 10 37 c12 44 28 50 29 11 l1
-28 12 27 c10 24 13 25 23 10 11 -16 12 -16 12 1 1 28 21 19 22 -10 1 -25 3
-23 14 12 l12 40 10 -35 10 -35 10 45 10 45 8 -40 9 -40 12 45 c10 36 12 39
13 18 1 -38 21 -35 21 3 0 43 20 26 21 -19 1 -33 2 -34 9 -12 4 14 9 43 9 65
2 53 20 27 22 -30 1 -35 2 -37 9 -15 4 14 9 43 10 65 l2 40 13 -50 12 -50 7
54 c5 33 11 49 16 41 5 -7 6 -19 3 -26 -2 -6 0 -15 5 -18 6 -3 14 13 18 36 l9
43 5 -55 6 -55 8 40 c13 67 20 72 26 20 l6 -50 8 53 c9 58 25 61 27 4 1 -36 1
-36 13 13 12 48 13 49 21 21 l8 -29 13 29 12 29 1 -35 c1 -26 4 -31 11 -20 5
8 10 25 10 38 0 13 4 20 10 17 6 -3 10 -21 10 -38 0 -24 3 -28 10 -17 5 8 10
29 10 45 0 23 3 27 10 15 5 -8 10 -26 11 -40 0 -23 1 -23 9 -5 5 11 9 34 10
50 l2 30 10 -34 c7 -26 12 -31 19 -20 5 8 9 25 9 38 0 29 8 24 14 -10 2 -13 5
-26 6 -29 1 -3 8 15 15 40 l13 45 2 -55 2 -55 12 53 c13 62 25 59 27 -7 2 -43
2 -41 13 24 11 68 24 72 27 7 1 -16 6 -5 13 28 12 53 12 54 20 25 l8 -30 11
25 10 25 4 -23 c5 -27 23 -20 23 9 0 27 20 14 21 -14 1 -15 5 -9 14 18 l13 40
8 -35 8 -35 12 40 c12 38 13 39 20 15 l8 -25 12 30 12 30 8 -30 8 -30 12 45
12 45 2 -45 2 -45 12 37 c16 53 26 57 27 12 0 -31 2 -35 9 -19 5 11 9 34 9 52
2 56 21 48 22 -9 l1 -53 12 70 c12 73 25 71 27 -3 1 -32 3 -28 13 23 10 53 13
57 21 35 l8 -25 13 30 c11 26 13 27 14 8 0 -29 20 -31 20 -2 0 27 20 14 21
-14 0 -17 3 -15 13 11 12 35 25 34 27 -2 1 -13 6 -6 14 19 12 39 19 37 28 -10
2 -13 7 -4 14 25 l9 45 9 -35 8 -35 13 45 c10 36 12 39 13 18 2 -42 17 -33 26
15 l9 42 6 -45 5 -45 8 48 c10 59 27 61 28 5 2 -42 2 -42 13 17 12 62 25 58
27 -8 1 -24 4 -18 11 22 9 51 11 53 22 33 13 -25 26 -19 26 12 1 20 1 20 14
-2 l12 -23 12 23 c6 13 11 17 11 11 1 -21 18 -15 26 10 7 21 8 20 14 -8 7 -30
7 -30 15 13 9 50 23 55 28 10 3 -27 5 -22 12 25 10 67 26 76 27 15 1 -42 1
-42 13 15 11 58 25 67 27 18 1 -21 3 -19 11 12 11 41 28 50 28 15 1 -20 2 -19
14 7 12 27 14 28 21 11 8 -17 9 -17 21 5 7 13 13 18 14 12 0 -22 20 -14 20 7
0 27 18 25 22 -2 3 -15 7 -7 12 25 10 56 26 62 27 10 1 -45 5 -36 14 30 7 49
24 56 26 9 1 -20 4 -16 11 16 9 41 27 49 29 14 0 -9 6 -1 14 18 11 29 14 32
20 17 10 -23 24 -4 26 33 0 14 3 19 6 13 9 -24 22 -13 29 22 6 33 8 34 20 18
13 -17 13 -17 14 4 0 30 20 40 21 11 1 -17 4 -14 13 14 16 53 26 57 27 12 1
-34 2 -36 9 -14 4 14 8 40 9 58 1 44 19 41 23 -5 3 -31 5 -26 12 30 10 80 26
89 27 15 1 -62 5 -55 14 25 7 60 24 69 26 14 l1 -32 8 30 c4 17 8 47 9 68 1
51 21 47 22 -5 l2 -43 8 45 c13 73 22 541 11 575 l-10 30 -1 -35 c-2 -59 -21
-73 -21 -15 -1 48 -1 49 -14 25 -13 -23 -14 -22 -21 35 -9 80 -13 90 -15 35
-2 -66 -18 -98 -20 -40 -1 25 -5 63 -9 85 l-9 40 -1 -52 c-1 -64 -21 -72 -21
-9 0 25 -4 48 -10 51 -5 3 -10 -1 -10 -9 0 -9 -4 -16 -10 -16 -5 0 -10 12 -10
28 l-1 27 -13 -25 c-14 -24 -14 -24 -24 20 -5 25 -10 35 -11 23 -3 -60 -16
-54 -27 12 -11 64 -12 66 -13 25 -2 -64 -20 -89 -22 -30 0 25 -5 56 -9 70 -7
21 -8 18 -9 -18 -1 -48 -21 -50 -21 -2 0 16 -4 32 -10 35 -5 3 -10 -3 -10 -15
0 -12 -4 -18 -10 -15 -5 3 -10 16 -10 28 0 25 -16 12 -22 -18 -3 -14 -8 -5
-15 25 -6 25 -11 36 -12 25 -3 -50 -19 -47 -29 6 -9 53 -10 53 -11 13 -2 -63
-15 -62 -27 3 -10 51 -12 54 -13 21 -2 -54 -21 -47 -21 7 0 54 -16 61 -18 9
-2 -50 -12 -56 -13 -8 -1 78 -19 159 -19 88 0 -16 -3 -40 -7 -54 -6 -21 -9
-15 -19 35 -8 43 -12 51 -13 28 -2 -63 -14 -71 -27 -18 -9 41 -12 44 -13 20
-2 -53 -17 -61 -26 -13 -9 42 -9 42 -13 11 -4 -35 -22 -46 -22 -14 0 11 -4 23
-10 26 -5 3 -10 -3 -10 -14 0 -32 -20 -25 -21 7 -1 26 -1 25 -12 -8 l-11 -35
-12 70 c-11 67 -12 68 -13 23 -2 -85 -15 -89 -27 -8 l-11 75 -2 -55 c-2 -68
-20 -105 -22 -45 -1 22 -5 54 -9 70 -7 27 -8 25 -9 -17 -1 -58 -21 -76 -21
-19 0 22 -4 43 -10 46 -6 4 -10 -7 -10 -25 0 -44 -20 -27 -21 18 l-1 37 -13
-40 -12 -40 -8 50 c-5 28 -9 46 -11 40 -1 -5 -6 -23 -10 -40 -7 -29 -7 -29
-19 20 -12 48 -13 49 -14 14 -2 -53 -14 -56 -27 -7 l-12 43 -1 -37 c-1 -40
-21 -54 -21 -15 0 12 -5 29 -10 37 -7 11 -10 7 -10 -17 0 -18 -4 -33 -10 -33
-5 0 -10 7 -10 15 0 8 -4 15 -10 15 -5 0 -10 -12 -10 -27 0 -53 -13 -12 -19
64 l-7 78 -8 -128z m333 -628 c1 -61 -1 -152 -6 -202 l-8 -92 -5 130 c-6 143
-1 275 10 275 3 0 8 -50 9 -111z m-3519 -1759 c0 -5 -4 -10 -10 -10 -5 0 -10
5 -10 10 0 6 5 10 10 10 6 0 10 -4 10 -10z m-4540 -720 c0 -5 -4 -10 -10 -10
-5 0 -10 5 -10 10 0 6 5 10 10 10 6 0 10 -4 10 -10z"/>
<path d="M10323 3580 c0 -30 2 -43 4 -27 2 15 2 39 0 55 -2 15 -4 2 -4 -28z"/>
<path d="M11361 3394 c0 -11 3 -14 6 -6 3 7 2 16 -1 19 -3 4 -6 -2 -5 -13z"/>
<path d="M4934 3290 c0 -63 1 -89 3 -57 2 31 2 83 0 115 -2 31 -3 5 -3 -58z"/>
<path d="M4944 2905 c0 -71 1 -99 3 -62 2 37 2 96 0 130 -2 34 -3 4 -3 -68z"/>
<path d="M8940 2999 c0 -5 5 -7 10 -4 6 3 10 8 10 11 0 2 -4 4 -10 4 -5 0 -10
-5 -10 -11z"/>
<path d="M11918 2795 c-5 -88 -7 -207 -7 -265 l2 -105 8 110 c5 61 8 180 7
265 l-3 155 -7 -160z"/>
<path d="M11953 2605 c0 -44 2 -61 4 -37 2 23 2 59 0 80 -2 20 -4 1 -4 -43z"/>
<path d="M11991 2624 c0 -11 3 -14 6 -6 3 7 2 16 -1 19 -3 4 -6 -2 -5 -13z"/>
<path d="M4954 2545 c0 -49 1 -71 3 -48 2 23 2 64 0 90 -2 26 -3 8 -3 -42z"/>
<path d="M9888 2383 c-3 -60 -2 -130 2 -158 5 -35 8 -3 9 108 0 86 -1 157 -3
157 -1 0 -5 -48 -8 -107z"/>
<path d="M9933 2395 c0 -27 2 -38 4 -22 2 15 2 37 0 50 -2 12 -4 0 -4 -28z"/>
<path d="M9931 2324 c0 -11 3 -14 6 -6 3 7 2 16 -1 19 -3 4 -6 -2 -5 -13z"/>
<path d="M9933 2265 c0 -22 2 -30 4 -17 2 12 2 30 0 40 -3 9 -5 -1 -4 -23z"/>
<path d="M4964 2180 c0 -63 1 -89 3 -57 2 31 2 83 0 115 -2 31 -3 5 -3 -58z"/>
<path d="M4973 1830 c0 -47 2 -66 4 -42 2 23 2 61 0 85 -2 23 -4 4 -4 -43z"/>
<path d="M5241 1580 c-2 -197 11 -445 22 -425 5 10 6 54 2 104 -3 47 -6 136
-6 196 0 61 -4 142 -8 180 -8 66 -8 63 -10 -55z"/>
<path d="M4984 1400 c0 -63 1 -89 3 -57 2 31 2 83 0 115 -2 31 -3 5 -3 -58z"/>
<path d="M5250 810 c0 -5 5 -10 10 -10 6 0 10 5 10 10 0 6 -4 10 -10 10 -5 0
-10 -4 -10 -10z"/>
<path d="M791 688 c-1 -39 3 -68 9 -68 12 0 12 74 0 110 -6 18 -8 7 -9 -42z"/>
<path d="M2120 639 c0 -5 5 -7 10 -4 6 3 10 8 10 11 0 2 -4 4 -10 4 -5 0 -10
-5 -10 -11z"/>
<path d="M974 559 c-3 -5 9 -9 25 -9 17 0 31 2 31 4 0 8 -51 13 -56 5z"/>
<path d="M3420 530 c0 -5 5 -10 10 -10 6 0 10 5 10 10 0 6 -4 10 -10 10 -5 0
-10 -4 -10 -10z"/>
<path d="M1915 370 c3 -5 8 -10 11 -10 2 0 4 5 4 10 0 6 -5 10 -11 10 -5 0 -7
-4 -4 -10z"/>
<path d="M1955 370 c3 -5 8 -10 11 -10 2 0 4 5 4 10 0 6 -5 10 -11 10 -5 0 -7
-4 -4 -10z"/>
<path d="M1990 369 c0 -5 5 -7 10 -4 6 3 10 8 10 11 0 2 -4 4 -10 4 -5 0 -10
-5 -10 -11z"/>
<path d="M1845 230 c3 -5 8 -10 11 -10 2 0 4 5 4 10 0 6 -5 10 -11 10 -5 0 -7
-4 -4 -10z"/>
</g>
</svg>
